G04 #@! TF.GenerationSoftware,KiCad,Pcbnew,(5.1.0-0)*
G04 #@! TF.CreationDate,2020-05-09T20:17:28+09:00*
G04 #@! TF.ProjectId,potto50,706f7474-6f35-4302-9e6b-696361645f70,rev?*
G04 #@! TF.SameCoordinates,Original*
G04 #@! TF.FileFunction,Legend,Top*
G04 #@! TF.FilePolarity,Positive*
%FSLAX46Y46*%
G04 Gerber Fmt 4.6, Leading zero omitted, Abs format (unit mm)*
G04 Created by KiCad (PCBNEW (5.1.0-0)) date 2020-05-09 20:17:28*
%MOMM*%
%LPD*%
G04 APERTURE LIST*
%ADD10C,0.150000*%
%ADD11C,0.120000*%
G04 APERTURE END LIST*
D10*
X137062100Y-21281000D02*
X137062100Y-20281000D01*
X137062100Y-20281000D02*
X138062100Y-20281000D01*
X150062100Y-34281000D02*
X151062100Y-34281000D01*
X151062100Y-34281000D02*
X151062100Y-33281000D01*
X151062100Y-21281000D02*
X151062100Y-20281000D01*
X151062100Y-20281000D02*
X150062100Y-20281000D01*
X137062100Y-33281000D02*
X137062100Y-34281000D01*
X138062100Y-34281000D02*
X137062100Y-34281000D01*
X150259300Y-72000700D02*
X151259300Y-72000700D01*
X151259300Y-73000700D02*
X151259300Y-72000700D01*
X137259300Y-86000700D02*
X138259300Y-86000700D01*
X137259300Y-85000700D02*
X137259300Y-86000700D01*
X137259300Y-72000700D02*
X137259300Y-73000700D01*
X138259300Y-72000700D02*
X137259300Y-72000700D01*
X151259300Y-86000700D02*
X150259300Y-86000700D01*
X151259300Y-85000700D02*
X151259300Y-86000700D01*
X151259300Y-104031300D02*
X151259300Y-105031300D01*
X151259300Y-105031300D02*
X150259300Y-105031300D01*
X138259300Y-91031300D02*
X137259300Y-91031300D01*
X137259300Y-91031300D02*
X137259300Y-92031300D01*
X137259300Y-104031300D02*
X137259300Y-105031300D01*
X137259300Y-105031300D02*
X138259300Y-105031300D01*
X151259300Y-92031300D02*
X151259300Y-91031300D01*
X150259300Y-91031300D02*
X151259300Y-91031300D01*
X21945600Y-68967400D02*
X22445600Y-69867400D01*
X22445600Y-69867400D02*
X21445600Y-69867400D01*
X21445600Y-69867400D02*
X21945600Y-68967400D01*
X22445600Y-68867400D02*
X21445600Y-68867400D01*
X40855900Y-69081700D02*
X41355900Y-69981700D01*
X41355900Y-69981700D02*
X40355900Y-69981700D01*
X40355900Y-69981700D02*
X40855900Y-69081700D01*
X41355900Y-68981700D02*
X40355900Y-68981700D01*
X59702700Y-68700700D02*
X60202700Y-69600700D01*
X60202700Y-69600700D02*
X59202700Y-69600700D01*
X59202700Y-69600700D02*
X59702700Y-68700700D01*
X60202700Y-68600700D02*
X59202700Y-68600700D01*
X79519400Y-64257300D02*
X78519400Y-64257300D01*
X78519400Y-65257300D02*
X79019400Y-64357300D01*
X79519400Y-65257300D02*
X78519400Y-65257300D01*
X79019400Y-64357300D02*
X79519400Y-65257300D01*
X114850000Y-93025000D02*
X113850000Y-93025000D01*
X113850000Y-94025000D02*
X114350000Y-93125000D01*
X114850000Y-94025000D02*
X113850000Y-94025000D01*
X114350000Y-93125000D02*
X114850000Y-94025000D01*
X117182900Y-68992800D02*
X117682900Y-69892800D01*
X117682900Y-69892800D02*
X116682900Y-69892800D01*
X116682900Y-69892800D02*
X117182900Y-68992800D01*
X117682900Y-68892800D02*
X116682900Y-68892800D01*
X22344000Y-88006300D02*
X21344000Y-88006300D01*
X21344000Y-89006300D02*
X21844000Y-88106300D01*
X22344000Y-89006300D02*
X21344000Y-89006300D01*
X21844000Y-88106300D02*
X22344000Y-89006300D01*
X40767000Y-88169800D02*
X41267000Y-89069800D01*
X41267000Y-89069800D02*
X40267000Y-89069800D01*
X40267000Y-89069800D02*
X40767000Y-88169800D01*
X41267000Y-88069800D02*
X40267000Y-88069800D01*
X60380500Y-83180300D02*
X59380500Y-83180300D01*
X59380500Y-84180300D02*
X59880500Y-83280300D01*
X60380500Y-84180300D02*
X59380500Y-84180300D01*
X59880500Y-83280300D02*
X60380500Y-84180300D01*
X79184500Y-83064400D02*
X79684500Y-83964400D01*
X79684500Y-83964400D02*
X78684500Y-83964400D01*
X78684500Y-83964400D02*
X79184500Y-83064400D01*
X79684500Y-82964400D02*
X78684500Y-82964400D01*
X98544000Y-93111700D02*
X97544000Y-93111700D01*
X97544000Y-94111700D02*
X98044000Y-93211700D01*
X98544000Y-94111700D02*
X97544000Y-94111700D01*
X98044000Y-93211700D02*
X98544000Y-94111700D01*
X117030500Y-87877700D02*
X117530500Y-88777700D01*
X117530500Y-88777700D02*
X116530500Y-88777700D01*
X116530500Y-88777700D02*
X117030500Y-87877700D01*
X117530500Y-87777700D02*
X116530500Y-87777700D01*
X136567800Y-80602200D02*
X135567800Y-80602200D01*
X135567800Y-81602200D02*
X136067800Y-80702200D01*
X136567800Y-81602200D02*
X135567800Y-81602200D01*
X136067800Y-80702200D02*
X136567800Y-81602200D01*
X22123400Y-107257900D02*
X22623400Y-108157900D01*
X22623400Y-108157900D02*
X21623400Y-108157900D01*
X21623400Y-108157900D02*
X22123400Y-107257900D01*
X22623400Y-107157900D02*
X21623400Y-107157900D01*
X41470200Y-106992800D02*
X40470200Y-106992800D01*
X40470200Y-107992800D02*
X40970200Y-107092800D01*
X41470200Y-107992800D02*
X40470200Y-107992800D01*
X40970200Y-107092800D02*
X41470200Y-107992800D01*
X59865500Y-102360300D02*
X60365500Y-103260300D01*
X60365500Y-103260300D02*
X59365500Y-103260300D01*
X59365500Y-103260300D02*
X59865500Y-102360300D01*
X60365500Y-102260300D02*
X59365500Y-102260300D01*
X79402000Y-102222200D02*
X78402000Y-102222200D01*
X78402000Y-103222200D02*
X78902000Y-102322200D01*
X79402000Y-103222200D02*
X78402000Y-103222200D01*
X78902000Y-102322200D02*
X79402000Y-103222200D01*
X97993200Y-107080100D02*
X98493200Y-107980100D01*
X98493200Y-107980100D02*
X97493200Y-107980100D01*
X97493200Y-107980100D02*
X97993200Y-107080100D01*
X98493200Y-106980100D02*
X97493200Y-106980100D01*
X117454300Y-107069000D02*
X116454300Y-107069000D01*
X116454300Y-108069000D02*
X116954300Y-107169000D01*
X117454300Y-108069000D02*
X116454300Y-108069000D01*
X116954300Y-107169000D02*
X117454300Y-108069000D01*
X136055100Y-97428100D02*
X136555100Y-98328100D01*
X136555100Y-98328100D02*
X135555100Y-98328100D01*
X135555100Y-98328100D02*
X136055100Y-97428100D01*
X136555100Y-97328100D02*
X135555100Y-97328100D01*
X22402800Y-126236700D02*
X21402800Y-126236700D01*
X21402800Y-127236700D02*
X21902800Y-126336700D01*
X22402800Y-127236700D02*
X21402800Y-127236700D01*
X21902800Y-126336700D02*
X22402800Y-127236700D01*
X69414700Y-126374800D02*
X69914700Y-127274800D01*
X69914700Y-127274800D02*
X68914700Y-127274800D01*
X68914700Y-127274800D02*
X69414700Y-126374800D01*
X69914700Y-126274800D02*
X68914700Y-126274800D01*
X88917400Y-126131700D02*
X87917400Y-126131700D01*
X87917400Y-127131700D02*
X88417400Y-126231700D01*
X88917400Y-127131700D02*
X87917400Y-127131700D01*
X88417400Y-126231700D02*
X88917400Y-127131700D01*
X107439700Y-126362100D02*
X107939700Y-127262100D01*
X107939700Y-127262100D02*
X106939700Y-127262100D01*
X106939700Y-127262100D02*
X107439700Y-126362100D01*
X107939700Y-126262100D02*
X106939700Y-126262100D01*
X136202287Y-134749787D02*
X135702287Y-135615813D01*
X136568313Y-136115813D02*
X136038890Y-135232800D01*
X137068313Y-135249787D02*
X136568313Y-136115813D01*
X136038890Y-135232800D02*
X137068313Y-135249787D01*
X138388600Y-109515400D02*
X136388600Y-109515400D01*
X136388600Y-109515400D02*
X136388600Y-111515400D01*
X136388600Y-111515400D02*
X138388600Y-111515400D01*
X138388600Y-111515400D02*
X138388600Y-109515400D01*
X138401300Y-114055400D02*
X138401300Y-112055400D01*
X136401300Y-114055400D02*
X138401300Y-114055400D01*
X136401300Y-112055400D02*
X136401300Y-114055400D01*
X138401300Y-112055400D02*
X136401300Y-112055400D01*
X85633560Y-73078340D02*
X85633560Y-75079860D01*
X85633560Y-75079860D02*
X88635840Y-75079860D01*
X88635840Y-75079860D02*
X88635840Y-73078340D01*
X88635840Y-73078340D02*
X85633560Y-73078340D01*
X77784960Y-75079860D02*
X80787240Y-75079860D01*
X77784960Y-73078340D02*
X77784960Y-75079860D01*
X80787240Y-73078340D02*
X77784960Y-73078340D01*
X80787240Y-75079860D02*
X80787240Y-73078340D01*
X35972000Y-62469000D02*
X36972000Y-62469000D01*
X36972000Y-63469000D02*
X36972000Y-62469000D01*
X22972000Y-76469000D02*
X23972000Y-76469000D01*
X22972000Y-75469000D02*
X22972000Y-76469000D01*
X22972000Y-62469000D02*
X22972000Y-63469000D01*
X23972000Y-62469000D02*
X22972000Y-62469000D01*
X36972000Y-76469000D02*
X35972000Y-76469000D01*
X36972000Y-75469000D02*
X36972000Y-76469000D01*
X55983900Y-75476500D02*
X55983900Y-76476500D01*
X55983900Y-76476500D02*
X54983900Y-76476500D01*
X42983900Y-62476500D02*
X41983900Y-62476500D01*
X41983900Y-62476500D02*
X41983900Y-63476500D01*
X41983900Y-75476500D02*
X41983900Y-76476500D01*
X41983900Y-76476500D02*
X42983900Y-76476500D01*
X55983900Y-63476500D02*
X55983900Y-62476500D01*
X54983900Y-62476500D02*
X55983900Y-62476500D01*
X74050000Y-57752100D02*
X75050000Y-57752100D01*
X75050000Y-58752100D02*
X75050000Y-57752100D01*
X61050000Y-71752100D02*
X62050000Y-71752100D01*
X61050000Y-70752100D02*
X61050000Y-71752100D01*
X61050000Y-57752100D02*
X61050000Y-58752100D01*
X62050000Y-57752100D02*
X61050000Y-57752100D01*
X75050000Y-71752100D02*
X74050000Y-71752100D01*
X75050000Y-70752100D02*
X75050000Y-71752100D01*
X94073800Y-70716000D02*
X94073800Y-71716000D01*
X94073800Y-71716000D02*
X93073800Y-71716000D01*
X81073800Y-57716000D02*
X80073800Y-57716000D01*
X80073800Y-57716000D02*
X80073800Y-58716000D01*
X80073800Y-70716000D02*
X80073800Y-71716000D01*
X80073800Y-71716000D02*
X81073800Y-71716000D01*
X94073800Y-58716000D02*
X94073800Y-57716000D01*
X93073800Y-57716000D02*
X94073800Y-57716000D01*
X112162700Y-62463800D02*
X113162700Y-62463800D01*
X113162700Y-63463800D02*
X113162700Y-62463800D01*
X99162700Y-76463800D02*
X100162700Y-76463800D01*
X99162700Y-75463800D02*
X99162700Y-76463800D01*
X99162700Y-62463800D02*
X99162700Y-63463800D01*
X100162700Y-62463800D02*
X99162700Y-62463800D01*
X113162700Y-76463800D02*
X112162700Y-76463800D01*
X113162700Y-75463800D02*
X113162700Y-76463800D01*
X132213100Y-75463600D02*
X132213100Y-76463600D01*
X132213100Y-76463600D02*
X131213100Y-76463600D01*
X119213100Y-62463600D02*
X118213100Y-62463600D01*
X118213100Y-62463600D02*
X118213100Y-63463600D01*
X118213100Y-75463600D02*
X118213100Y-76463600D01*
X118213100Y-76463600D02*
X119213100Y-76463600D01*
X132213100Y-63463600D02*
X132213100Y-62463600D01*
X131213100Y-62463600D02*
X132213100Y-62463600D01*
X35972000Y-81519000D02*
X36972000Y-81519000D01*
X36972000Y-82519000D02*
X36972000Y-81519000D01*
X22972000Y-95519000D02*
X23972000Y-95519000D01*
X22972000Y-94519000D02*
X22972000Y-95519000D01*
X22972000Y-81519000D02*
X22972000Y-82519000D01*
X23972000Y-81519000D02*
X22972000Y-81519000D01*
X36972000Y-95519000D02*
X35972000Y-95519000D01*
X36972000Y-94519000D02*
X36972000Y-95519000D01*
X55986100Y-94542000D02*
X55986100Y-95542000D01*
X55986100Y-95542000D02*
X54986100Y-95542000D01*
X42986100Y-81542000D02*
X41986100Y-81542000D01*
X41986100Y-81542000D02*
X41986100Y-82542000D01*
X41986100Y-94542000D02*
X41986100Y-95542000D01*
X41986100Y-95542000D02*
X42986100Y-95542000D01*
X55986100Y-82542000D02*
X55986100Y-81542000D01*
X54986100Y-81542000D02*
X55986100Y-81542000D01*
X74038800Y-76777500D02*
X75038800Y-76777500D01*
X75038800Y-77777500D02*
X75038800Y-76777500D01*
X61038800Y-90777500D02*
X62038800Y-90777500D01*
X61038800Y-89777500D02*
X61038800Y-90777500D01*
X61038800Y-76777500D02*
X61038800Y-77777500D01*
X62038800Y-76777500D02*
X61038800Y-76777500D01*
X75038800Y-90777500D02*
X74038800Y-90777500D01*
X75038800Y-89777500D02*
X75038800Y-90777500D01*
X94124600Y-89764800D02*
X94124600Y-90764800D01*
X94124600Y-90764800D02*
X93124600Y-90764800D01*
X81124600Y-76764800D02*
X80124600Y-76764800D01*
X80124600Y-76764800D02*
X80124600Y-77764800D01*
X80124600Y-89764800D02*
X80124600Y-90764800D01*
X80124600Y-90764800D02*
X81124600Y-90764800D01*
X94124600Y-77764800D02*
X94124600Y-76764800D01*
X93124600Y-76764800D02*
X94124600Y-76764800D01*
X112150000Y-81501900D02*
X113150000Y-81501900D01*
X113150000Y-82501900D02*
X113150000Y-81501900D01*
X99150000Y-95501900D02*
X100150000Y-95501900D01*
X99150000Y-94501900D02*
X99150000Y-95501900D01*
X99150000Y-81501900D02*
X99150000Y-82501900D01*
X100150000Y-81501900D02*
X99150000Y-81501900D01*
X113150000Y-95501900D02*
X112150000Y-95501900D01*
X113150000Y-94501900D02*
X113150000Y-95501900D01*
X132213100Y-94539800D02*
X132213100Y-95539800D01*
X132213100Y-95539800D02*
X131213100Y-95539800D01*
X119213100Y-81539800D02*
X118213100Y-81539800D01*
X118213100Y-81539800D02*
X118213100Y-82539800D01*
X118213100Y-94539800D02*
X118213100Y-95539800D01*
X118213100Y-95539800D02*
X119213100Y-95539800D01*
X132213100Y-82539800D02*
X132213100Y-81539800D01*
X131213100Y-81539800D02*
X132213100Y-81539800D01*
X126806700Y-80629700D02*
X132806700Y-80629700D01*
X132806700Y-80629700D02*
X132806700Y-80379700D01*
X126806700Y-80629700D02*
X126806700Y-80379700D01*
X126806700Y-77129700D02*
X126806700Y-77379700D01*
X126806700Y-77129700D02*
X132806700Y-77129700D01*
X132806700Y-77129700D02*
X132806700Y-77379700D01*
X35946600Y-100556300D02*
X36946600Y-100556300D01*
X36946600Y-101556300D02*
X36946600Y-100556300D01*
X22946600Y-114556300D02*
X23946600Y-114556300D01*
X22946600Y-113556300D02*
X22946600Y-114556300D01*
X22946600Y-100556300D02*
X22946600Y-101556300D01*
X23946600Y-100556300D02*
X22946600Y-100556300D01*
X36946600Y-114556300D02*
X35946600Y-114556300D01*
X36946600Y-113556300D02*
X36946600Y-114556300D01*
X56009300Y-113581700D02*
X56009300Y-114581700D01*
X56009300Y-114581700D02*
X55009300Y-114581700D01*
X43009300Y-100581700D02*
X42009300Y-100581700D01*
X42009300Y-100581700D02*
X42009300Y-101581700D01*
X42009300Y-113581700D02*
X42009300Y-114581700D01*
X42009300Y-114581700D02*
X43009300Y-114581700D01*
X56009300Y-101581700D02*
X56009300Y-100581700D01*
X55009300Y-100581700D02*
X56009300Y-100581700D01*
X74050000Y-95851700D02*
X75050000Y-95851700D01*
X75050000Y-96851700D02*
X75050000Y-95851700D01*
X61050000Y-109851700D02*
X62050000Y-109851700D01*
X61050000Y-108851700D02*
X61050000Y-109851700D01*
X61050000Y-95851700D02*
X61050000Y-96851700D01*
X62050000Y-95851700D02*
X61050000Y-95851700D01*
X75050000Y-109851700D02*
X74050000Y-109851700D01*
X75050000Y-108851700D02*
X75050000Y-109851700D01*
X94086500Y-108813600D02*
X94086500Y-109813600D01*
X94086500Y-109813600D02*
X93086500Y-109813600D01*
X81086500Y-95813600D02*
X80086500Y-95813600D01*
X80086500Y-95813600D02*
X80086500Y-96813600D01*
X80086500Y-108813600D02*
X80086500Y-109813600D01*
X80086500Y-109813600D02*
X81086500Y-109813600D01*
X94086500Y-96813600D02*
X94086500Y-95813600D01*
X93086500Y-95813600D02*
X94086500Y-95813600D01*
X112162700Y-100550700D02*
X113162700Y-100550700D01*
X113162700Y-101550700D02*
X113162700Y-100550700D01*
X99162700Y-114550700D02*
X100162700Y-114550700D01*
X99162700Y-113550700D02*
X99162700Y-114550700D01*
X99162700Y-100550700D02*
X99162700Y-101550700D01*
X100162700Y-100550700D02*
X99162700Y-100550700D01*
X113162700Y-114550700D02*
X112162700Y-114550700D01*
X113162700Y-113550700D02*
X113162700Y-114550700D01*
X132223800Y-113588600D02*
X132223800Y-114588600D01*
X132223800Y-114588600D02*
X131223800Y-114588600D01*
X119223800Y-100588600D02*
X118223800Y-100588600D01*
X118223800Y-100588600D02*
X118223800Y-101588600D01*
X118223800Y-113588600D02*
X118223800Y-114588600D01*
X118223800Y-114588600D02*
X119223800Y-114588600D01*
X132223800Y-101588600D02*
X132223800Y-100588600D01*
X131223800Y-100588600D02*
X132223800Y-100588600D01*
X36949600Y-132601500D02*
X36949600Y-133601500D01*
X36949600Y-133601500D02*
X35949600Y-133601500D01*
X23949600Y-119601500D02*
X22949600Y-119601500D01*
X22949600Y-119601500D02*
X22949600Y-120601500D01*
X22949600Y-132601500D02*
X22949600Y-133601500D01*
X22949600Y-133601500D02*
X23949600Y-133601500D01*
X36949600Y-120601500D02*
X36949600Y-119601500D01*
X35949600Y-119601500D02*
X36949600Y-119601500D01*
X84586500Y-132626900D02*
X84586500Y-133626900D01*
X84586500Y-133626900D02*
X83586500Y-133626900D01*
X71586500Y-119626900D02*
X70586500Y-119626900D01*
X70586500Y-119626900D02*
X70586500Y-120626900D01*
X70586500Y-132626900D02*
X70586500Y-133626900D01*
X70586500Y-133626900D02*
X71586500Y-133626900D01*
X84586500Y-120626900D02*
X84586500Y-119626900D01*
X83586500Y-119626900D02*
X84586500Y-119626900D01*
X102651900Y-119626900D02*
X103651900Y-119626900D01*
X103651900Y-120626900D02*
X103651900Y-119626900D01*
X89651900Y-133626900D02*
X90651900Y-133626900D01*
X89651900Y-132626900D02*
X89651900Y-133626900D01*
X89651900Y-119626900D02*
X89651900Y-120626900D01*
X90651900Y-119626900D02*
X89651900Y-119626900D01*
X103651900Y-133626900D02*
X102651900Y-133626900D01*
X103651900Y-132626900D02*
X103651900Y-133626900D01*
X122676500Y-132626900D02*
X122676500Y-133626900D01*
X122676500Y-133626900D02*
X121676500Y-133626900D01*
X109676500Y-119626900D02*
X108676500Y-119626900D01*
X108676500Y-119626900D02*
X108676500Y-120626900D01*
X108676500Y-132626900D02*
X108676500Y-133626900D01*
X108676500Y-133626900D02*
X109676500Y-133626900D01*
X122676500Y-120626900D02*
X122676500Y-119626900D01*
X121676500Y-119626900D02*
X122676500Y-119626900D01*
X137564922Y-119523048D02*
X138064922Y-118657022D01*
X138930948Y-119157022D02*
X138064922Y-118657022D01*
X143189278Y-137781378D02*
X143689278Y-136915352D01*
X142323252Y-137281378D02*
X143189278Y-137781378D01*
X131064922Y-130781378D02*
X131930948Y-131281378D01*
X131564922Y-129915352D02*
X131064922Y-130781378D01*
X150189278Y-125657022D02*
X149689278Y-126523048D01*
X149323252Y-125157022D02*
X150189278Y-125657022D01*
D11*
X144273900Y-77942200D02*
X144273900Y-78942200D01*
X144773900Y-78442200D02*
X143773900Y-78442200D01*
X148373900Y-71242200D02*
X148073900Y-70942200D01*
X148373900Y-70642200D02*
X148373900Y-71242200D01*
X148073900Y-70942200D02*
X148373900Y-70642200D01*
X150573900Y-71742200D02*
X148073900Y-71742200D01*
X150573900Y-76542200D02*
X150573900Y-71742200D01*
X137973900Y-71742200D02*
X140773900Y-71742200D01*
X137973900Y-76642200D02*
X137973900Y-71742200D01*
X137973900Y-85142200D02*
X137973900Y-80242200D01*
X150573900Y-85142200D02*
X137973900Y-85142200D01*
X150573900Y-80242200D02*
X150573900Y-85142200D01*
X147273900Y-78442200D02*
G75*
G03X147273900Y-78442200I-3000000J0D01*
G01*
D10*
X21500000Y-37050000D02*
X21000000Y-36150000D01*
X21000000Y-36150000D02*
X22000000Y-36150000D01*
X22000000Y-36150000D02*
X21500000Y-37050000D01*
X21000000Y-37150000D02*
X22000000Y-37150000D01*
X40075000Y-37250000D02*
X41075000Y-37250000D01*
X41075000Y-36250000D02*
X40575000Y-37150000D01*
X40075000Y-36250000D02*
X41075000Y-36250000D01*
X40575000Y-37150000D02*
X40075000Y-36250000D01*
X59650000Y-37875000D02*
X59150000Y-36975000D01*
X59150000Y-36975000D02*
X60150000Y-36975000D01*
X60150000Y-36975000D02*
X59650000Y-37875000D01*
X59150000Y-37975000D02*
X60150000Y-37975000D01*
X78100000Y-38000000D02*
X79100000Y-38000000D01*
X79100000Y-37000000D02*
X78600000Y-37900000D01*
X78100000Y-37000000D02*
X79100000Y-37000000D01*
X78600000Y-37900000D02*
X78100000Y-37000000D01*
X114025000Y-13675000D02*
X113525000Y-12775000D01*
X113525000Y-12775000D02*
X114525000Y-12775000D01*
X114525000Y-12775000D02*
X114025000Y-13675000D01*
X113525000Y-13775000D02*
X114525000Y-13775000D01*
X116075000Y-37325000D02*
X117075000Y-37325000D01*
X117075000Y-36325000D02*
X116575000Y-37225000D01*
X116075000Y-36325000D02*
X117075000Y-36325000D01*
X116575000Y-37225000D02*
X116075000Y-36325000D01*
X21500000Y-18175000D02*
X21000000Y-17275000D01*
X21000000Y-17275000D02*
X22000000Y-17275000D01*
X22000000Y-17275000D02*
X21500000Y-18175000D01*
X21000000Y-18275000D02*
X22000000Y-18275000D01*
X40075000Y-18500000D02*
X41075000Y-18500000D01*
X41075000Y-17500000D02*
X40575000Y-18400000D01*
X40075000Y-17500000D02*
X41075000Y-17500000D01*
X40575000Y-18400000D02*
X40075000Y-17500000D01*
X59675000Y-22725000D02*
X59175000Y-21825000D01*
X59175000Y-21825000D02*
X60175000Y-21825000D01*
X60175000Y-21825000D02*
X59675000Y-22725000D01*
X59175000Y-22825000D02*
X60175000Y-22825000D01*
X78150000Y-22825000D02*
X79150000Y-22825000D01*
X79150000Y-21825000D02*
X78650000Y-22725000D01*
X78150000Y-21825000D02*
X79150000Y-21825000D01*
X78650000Y-22725000D02*
X78150000Y-21825000D01*
X97525000Y-13900000D02*
X97025000Y-13000000D01*
X97025000Y-13000000D02*
X98025000Y-13000000D01*
X98025000Y-13000000D02*
X97525000Y-13900000D01*
X97025000Y-14000000D02*
X98025000Y-14000000D01*
X116475000Y-13700000D02*
X117475000Y-13700000D01*
X117475000Y-12700000D02*
X116975000Y-13600000D01*
X116475000Y-12700000D02*
X117475000Y-12700000D01*
X116975000Y-13600000D02*
X116475000Y-12700000D01*
X135750000Y-25600000D02*
X135250000Y-24700000D01*
X135250000Y-24700000D02*
X136250000Y-24700000D01*
X136250000Y-24700000D02*
X135750000Y-25600000D01*
X135250000Y-25700000D02*
X136250000Y-25700000D01*
X21100000Y800000D02*
X22100000Y800000D01*
X22100000Y1800000D02*
X21600000Y900000D01*
X21100000Y1800000D02*
X22100000Y1800000D01*
X21600000Y900000D02*
X21100000Y1800000D01*
X40575000Y800000D02*
X40075000Y1700000D01*
X40075000Y1700000D02*
X41075000Y1700000D01*
X41075000Y1700000D02*
X40575000Y800000D01*
X40075000Y700000D02*
X41075000Y700000D01*
X59175000Y-3750000D02*
X60175000Y-3750000D01*
X60175000Y-2750000D02*
X59675000Y-3650000D01*
X59175000Y-2750000D02*
X60175000Y-2750000D01*
X59675000Y-3650000D02*
X59175000Y-2750000D01*
X78750000Y-3750000D02*
X78250000Y-2850000D01*
X78250000Y-2850000D02*
X79250000Y-2850000D01*
X79250000Y-2850000D02*
X78750000Y-3750000D01*
X78250000Y-3850000D02*
X79250000Y-3850000D01*
X97225000Y600000D02*
X98225000Y600000D01*
X98225000Y1600000D02*
X97725000Y700000D01*
X97225000Y1600000D02*
X98225000Y1600000D01*
X97725000Y700000D02*
X97225000Y1600000D01*
X116800000Y600000D02*
X116300000Y1500000D01*
X116300000Y1500000D02*
X117300000Y1500000D01*
X117300000Y1500000D02*
X116800000Y600000D01*
X116300000Y500000D02*
X117300000Y500000D01*
X135275000Y-8875000D02*
X136275000Y-8875000D01*
X136275000Y-7875000D02*
X135775000Y-8775000D01*
X135275000Y-7875000D02*
X136275000Y-7875000D01*
X135775000Y-8775000D02*
X135275000Y-7875000D01*
X21600000Y19900000D02*
X21100000Y20800000D01*
X21100000Y20800000D02*
X22100000Y20800000D01*
X22100000Y20800000D02*
X21600000Y19900000D01*
X21100000Y19800000D02*
X22100000Y19800000D01*
X68600000Y20000000D02*
X69600000Y20000000D01*
X69600000Y21000000D02*
X69100000Y20100000D01*
X68600000Y21000000D02*
X69600000Y21000000D01*
X69100000Y20100000D02*
X68600000Y21000000D01*
X88125000Y19775000D02*
X87625000Y20675000D01*
X87625000Y20675000D02*
X88625000Y20675000D01*
X88625000Y20675000D02*
X88125000Y19775000D01*
X87625000Y19675000D02*
X88625000Y19675000D01*
X106600000Y19800000D02*
X107600000Y19800000D01*
X107600000Y20800000D02*
X107100000Y19900000D01*
X106600000Y20800000D02*
X107600000Y20800000D01*
X107100000Y19900000D02*
X106600000Y20800000D01*
X144378590Y14850000D02*
X144908013Y15733013D01*
X144908013Y15733013D02*
X145408013Y14866987D01*
X145408013Y14866987D02*
X144378590Y14850000D01*
X144041987Y15233013D02*
X144541987Y14366987D01*
X138050000Y6100000D02*
X138050000Y8100000D01*
X136050000Y6100000D02*
X138050000Y6100000D01*
X136050000Y8100000D02*
X136050000Y6100000D01*
X138050000Y8100000D02*
X136050000Y8100000D01*
X138050000Y5525000D02*
X136050000Y5525000D01*
X136050000Y5525000D02*
X136050000Y3525000D01*
X136050000Y3525000D02*
X138050000Y3525000D01*
X138050000Y3525000D02*
X138050000Y5525000D01*
X87860940Y-30649240D02*
X84858660Y-30649240D01*
X87860940Y-32650760D02*
X87860940Y-30649240D01*
X84858660Y-32650760D02*
X87860940Y-32650760D01*
X84858660Y-30649240D02*
X84858660Y-32650760D01*
X79976140Y-32650760D02*
X79976140Y-30649240D01*
X79976140Y-30649240D02*
X76973860Y-30649240D01*
X76973860Y-30649240D02*
X76973860Y-32650760D01*
X76973860Y-32650760D02*
X79976140Y-32650760D01*
X23750000Y-43850000D02*
X22750000Y-43850000D01*
X22750000Y-42850000D02*
X22750000Y-43850000D01*
X36750000Y-29850000D02*
X35750000Y-29850000D01*
X36750000Y-30850000D02*
X36750000Y-29850000D01*
X36750000Y-43850000D02*
X36750000Y-42850000D01*
X35750000Y-43850000D02*
X36750000Y-43850000D01*
X22750000Y-29850000D02*
X23750000Y-29850000D01*
X22750000Y-30850000D02*
X22750000Y-29850000D01*
X42775000Y-43825000D02*
X41775000Y-43825000D01*
X41775000Y-42825000D02*
X41775000Y-43825000D01*
X55775000Y-29825000D02*
X54775000Y-29825000D01*
X55775000Y-30825000D02*
X55775000Y-29825000D01*
X55775000Y-43825000D02*
X55775000Y-42825000D01*
X54775000Y-43825000D02*
X55775000Y-43825000D01*
X41775000Y-29825000D02*
X42775000Y-29825000D01*
X41775000Y-30825000D02*
X41775000Y-29825000D01*
X60780820Y-35652320D02*
X60780820Y-34652320D01*
X60780820Y-34652320D02*
X61780820Y-34652320D01*
X73780820Y-48652320D02*
X74780820Y-48652320D01*
X74780820Y-48652320D02*
X74780820Y-47652320D01*
X74780820Y-35652320D02*
X74780820Y-34652320D01*
X74780820Y-34652320D02*
X73780820Y-34652320D01*
X60780820Y-47652320D02*
X60780820Y-48652320D01*
X61780820Y-48652320D02*
X60780820Y-48652320D01*
X80932420Y-48629460D02*
X79932420Y-48629460D01*
X79932420Y-47629460D02*
X79932420Y-48629460D01*
X93932420Y-34629460D02*
X92932420Y-34629460D01*
X93932420Y-35629460D02*
X93932420Y-34629460D01*
X93932420Y-48629460D02*
X93932420Y-47629460D01*
X92932420Y-48629460D02*
X93932420Y-48629460D01*
X79932420Y-34629460D02*
X80932420Y-34629460D01*
X79932420Y-35629460D02*
X79932420Y-34629460D01*
X98969720Y-30772980D02*
X98969720Y-29772980D01*
X98969720Y-29772980D02*
X99969720Y-29772980D01*
X111969720Y-43772980D02*
X112969720Y-43772980D01*
X112969720Y-43772980D02*
X112969720Y-42772980D01*
X112969720Y-30772980D02*
X112969720Y-29772980D01*
X112969720Y-29772980D02*
X111969720Y-29772980D01*
X98969720Y-42772980D02*
X98969720Y-43772980D01*
X99969720Y-43772980D02*
X98969720Y-43772980D01*
X119012100Y-43767900D02*
X118012100Y-43767900D01*
X118012100Y-42767900D02*
X118012100Y-43767900D01*
X132012100Y-29767900D02*
X131012100Y-29767900D01*
X132012100Y-30767900D02*
X132012100Y-29767900D01*
X132012100Y-43767900D02*
X132012100Y-42767900D01*
X131012100Y-43767900D02*
X132012100Y-43767900D01*
X118012100Y-29767900D02*
X119012100Y-29767900D01*
X118012100Y-30767900D02*
X118012100Y-29767900D01*
X22700000Y-11750000D02*
X22700000Y-10750000D01*
X22700000Y-10750000D02*
X23700000Y-10750000D01*
X35700000Y-24750000D02*
X36700000Y-24750000D01*
X36700000Y-24750000D02*
X36700000Y-23750000D01*
X36700000Y-11750000D02*
X36700000Y-10750000D01*
X36700000Y-10750000D02*
X35700000Y-10750000D01*
X22700000Y-23750000D02*
X22700000Y-24750000D01*
X23700000Y-24750000D02*
X22700000Y-24750000D01*
X42789240Y-24725520D02*
X41789240Y-24725520D01*
X41789240Y-23725520D02*
X41789240Y-24725520D01*
X55789240Y-10725520D02*
X54789240Y-10725520D01*
X55789240Y-11725520D02*
X55789240Y-10725520D01*
X55789240Y-24725520D02*
X55789240Y-23725520D01*
X54789240Y-24725520D02*
X55789240Y-24725520D01*
X41789240Y-10725520D02*
X42789240Y-10725520D01*
X41789240Y-11725520D02*
X41789240Y-10725520D01*
X60844320Y-16447380D02*
X60844320Y-15447380D01*
X60844320Y-15447380D02*
X61844320Y-15447380D01*
X73844320Y-29447380D02*
X74844320Y-29447380D01*
X74844320Y-29447380D02*
X74844320Y-28447380D01*
X74844320Y-16447380D02*
X74844320Y-15447380D01*
X74844320Y-15447380D02*
X73844320Y-15447380D01*
X60844320Y-28447380D02*
X60844320Y-29447380D01*
X61844320Y-29447380D02*
X60844320Y-29447380D01*
X80875000Y-29525000D02*
X79875000Y-29525000D01*
X79875000Y-28525000D02*
X79875000Y-29525000D01*
X93875000Y-15525000D02*
X92875000Y-15525000D01*
X93875000Y-16525000D02*
X93875000Y-15525000D01*
X93875000Y-29525000D02*
X93875000Y-28525000D01*
X92875000Y-29525000D02*
X93875000Y-29525000D01*
X79875000Y-15525000D02*
X80875000Y-15525000D01*
X79875000Y-16525000D02*
X79875000Y-15525000D01*
X98982420Y-11735680D02*
X98982420Y-10735680D01*
X98982420Y-10735680D02*
X99982420Y-10735680D01*
X111982420Y-24735680D02*
X112982420Y-24735680D01*
X112982420Y-24735680D02*
X112982420Y-23735680D01*
X112982420Y-11735680D02*
X112982420Y-10735680D01*
X112982420Y-10735680D02*
X111982420Y-10735680D01*
X98982420Y-23735680D02*
X98982420Y-24735680D01*
X99982420Y-24735680D02*
X98982420Y-24735680D01*
X119024800Y-24717900D02*
X118024800Y-24717900D01*
X118024800Y-23717900D02*
X118024800Y-24717900D01*
X132024800Y-10717900D02*
X131024800Y-10717900D01*
X132024800Y-11717900D02*
X132024800Y-10717900D01*
X132024800Y-24717900D02*
X132024800Y-23717900D01*
X131024800Y-24717900D02*
X132024800Y-24717900D01*
X118024800Y-10717900D02*
X119024800Y-10717900D01*
X118024800Y-11717900D02*
X118024800Y-10717900D01*
D11*
X144100000Y-28200000D02*
X144100000Y-27200000D01*
X143600000Y-27700000D02*
X144600000Y-27700000D01*
X140000000Y-34900000D02*
X140300000Y-35200000D01*
X140000000Y-35500000D02*
X140000000Y-34900000D01*
X140300000Y-35200000D02*
X140000000Y-35500000D01*
X137800000Y-34400000D02*
X140300000Y-34400000D01*
X137800000Y-29600000D02*
X137800000Y-34400000D01*
X150400000Y-34400000D02*
X147600000Y-34400000D01*
X150400000Y-29500000D02*
X150400000Y-34400000D01*
X150400000Y-21000000D02*
X150400000Y-25900000D01*
X137800000Y-21000000D02*
X150400000Y-21000000D01*
X137800000Y-25900000D02*
X137800000Y-21000000D01*
X147100000Y-27700000D02*
G75*
G03X147100000Y-27700000I-3000000J0D01*
G01*
D10*
X132550000Y-25725000D02*
X126550000Y-25725000D01*
X126550000Y-25725000D02*
X126550000Y-25975000D01*
X132550000Y-25725000D02*
X132550000Y-25975000D01*
X132550000Y-29225000D02*
X132550000Y-28975000D01*
X132550000Y-29225000D02*
X126550000Y-29225000D01*
X126550000Y-29225000D02*
X126550000Y-28975000D01*
X22757020Y7172080D02*
X22757020Y8172080D01*
X22757020Y8172080D02*
X23757020Y8172080D01*
X35757020Y-5827920D02*
X36757020Y-5827920D01*
X36757020Y-5827920D02*
X36757020Y-4827920D01*
X36757020Y7172080D02*
X36757020Y8172080D01*
X36757020Y8172080D02*
X35757020Y8172080D01*
X22757020Y-4827920D02*
X22757020Y-5827920D01*
X23757020Y-5827920D02*
X22757020Y-5827920D01*
X42775000Y-5725000D02*
X41775000Y-5725000D01*
X41775000Y-4725000D02*
X41775000Y-5725000D01*
X55775000Y8275000D02*
X54775000Y8275000D01*
X55775000Y7275000D02*
X55775000Y8275000D01*
X55775000Y-5725000D02*
X55775000Y-4725000D01*
X54775000Y-5725000D02*
X55775000Y-5725000D01*
X41775000Y8275000D02*
X42775000Y8275000D01*
X41775000Y7275000D02*
X41775000Y8275000D01*
X60875000Y2525000D02*
X60875000Y3525000D01*
X60875000Y3525000D02*
X61875000Y3525000D01*
X73875000Y-10475000D02*
X74875000Y-10475000D01*
X74875000Y-10475000D02*
X74875000Y-9475000D01*
X74875000Y2525000D02*
X74875000Y3525000D01*
X74875000Y3525000D02*
X73875000Y3525000D01*
X60875000Y-9475000D02*
X60875000Y-10475000D01*
X61875000Y-10475000D02*
X60875000Y-10475000D01*
X80925000Y-10450000D02*
X79925000Y-10450000D01*
X79925000Y-9450000D02*
X79925000Y-10450000D01*
X93925000Y3550000D02*
X92925000Y3550000D01*
X93925000Y2550000D02*
X93925000Y3550000D01*
X93925000Y-10450000D02*
X93925000Y-9450000D01*
X92925000Y-10450000D02*
X93925000Y-10450000D01*
X79925000Y3550000D02*
X80925000Y3550000D01*
X79925000Y2550000D02*
X79925000Y3550000D01*
X99007820Y7197480D02*
X99007820Y8197480D01*
X99007820Y8197480D02*
X100007820Y8197480D01*
X112007820Y-5802520D02*
X113007820Y-5802520D01*
X113007820Y-5802520D02*
X113007820Y-4802520D01*
X113007820Y7197480D02*
X113007820Y8197480D01*
X113007820Y8197480D02*
X112007820Y8197480D01*
X99007820Y-4802520D02*
X99007820Y-5802520D01*
X100007820Y-5802520D02*
X99007820Y-5802520D01*
X119012100Y-5693300D02*
X118012100Y-5693300D01*
X118012100Y-4693300D02*
X118012100Y-5693300D01*
X132012100Y8306700D02*
X131012100Y8306700D01*
X132012100Y7306700D02*
X132012100Y8306700D01*
X132012100Y-5693300D02*
X132012100Y-4693300D01*
X131012100Y-5693300D02*
X132012100Y-5693300D01*
X118012100Y8306700D02*
X119012100Y8306700D01*
X118012100Y7306700D02*
X118012100Y8306700D01*
X138074800Y-15218300D02*
X137074800Y-15218300D01*
X137074800Y-14218300D02*
X137074800Y-15218300D01*
X151074800Y-1218300D02*
X150074800Y-1218300D01*
X151074800Y-2218300D02*
X151074800Y-1218300D01*
X151074800Y-15218300D02*
X151074800Y-14218300D01*
X150074800Y-15218300D02*
X151074800Y-15218300D01*
X137074800Y-1218300D02*
X138074800Y-1218300D01*
X137074800Y-2218300D02*
X137074800Y-1218300D01*
X22775000Y26325000D02*
X22775000Y27325000D01*
X22775000Y27325000D02*
X23775000Y27325000D01*
X35775000Y13325000D02*
X36775000Y13325000D01*
X36775000Y13325000D02*
X36775000Y14325000D01*
X36775000Y26325000D02*
X36775000Y27325000D01*
X36775000Y27325000D02*
X35775000Y27325000D01*
X22775000Y14325000D02*
X22775000Y13325000D01*
X23775000Y13325000D02*
X22775000Y13325000D01*
X70375000Y26350000D02*
X70375000Y27350000D01*
X70375000Y27350000D02*
X71375000Y27350000D01*
X83375000Y13350000D02*
X84375000Y13350000D01*
X84375000Y13350000D02*
X84375000Y14350000D01*
X84375000Y26350000D02*
X84375000Y27350000D01*
X84375000Y27350000D02*
X83375000Y27350000D01*
X70375000Y14350000D02*
X70375000Y13350000D01*
X71375000Y13350000D02*
X70375000Y13350000D01*
X89437100Y26344000D02*
X89437100Y27344000D01*
X89437100Y27344000D02*
X90437100Y27344000D01*
X102437100Y13344000D02*
X103437100Y13344000D01*
X103437100Y13344000D02*
X103437100Y14344000D01*
X103437100Y26344000D02*
X103437100Y27344000D01*
X103437100Y27344000D02*
X102437100Y27344000D01*
X89437100Y14344000D02*
X89437100Y13344000D01*
X90437100Y13344000D02*
X89437100Y13344000D01*
X109487100Y13356700D02*
X108487100Y13356700D01*
X108487100Y14356700D02*
X108487100Y13356700D01*
X122487100Y27356700D02*
X121487100Y27356700D01*
X122487100Y26356700D02*
X122487100Y27356700D01*
X122487100Y13356700D02*
X122487100Y14356700D01*
X121487100Y13356700D02*
X122487100Y13356700D01*
X108487100Y27356700D02*
X109487100Y27356700D01*
X108487100Y26356700D02*
X108487100Y27356700D01*
X142121152Y30962178D02*
X142987178Y31462178D01*
X142987178Y31462178D02*
X143487178Y30596152D01*
X137362822Y13203848D02*
X137862822Y12337822D01*
X137862822Y12337822D02*
X138728848Y12837822D01*
X149121152Y18837822D02*
X149987178Y19337822D01*
X149987178Y19337822D02*
X149487178Y20203848D01*
X131728848Y24962178D02*
X130862822Y24462178D01*
X131362822Y23596152D02*
X130862822Y24462178D01*
X136105295Y-111115323D02*
X135292495Y-111115323D01*
X135292495Y-110805685D01*
X135331200Y-110728276D01*
X135369904Y-110689571D01*
X135447314Y-110650866D01*
X135563428Y-110650866D01*
X135640838Y-110689571D01*
X135679542Y-110728276D01*
X135718247Y-110805685D01*
X135718247Y-111115323D01*
X136105295Y-109876771D02*
X136105295Y-110341228D01*
X136105295Y-110109000D02*
X135292495Y-110109000D01*
X135408609Y-110186409D01*
X135486019Y-110263819D01*
X135524723Y-110341228D01*
X136117995Y-113655323D02*
X135305195Y-113655323D01*
X135305195Y-113345685D01*
X135343900Y-113268276D01*
X135382604Y-113229571D01*
X135460014Y-113190866D01*
X135576128Y-113190866D01*
X135653538Y-113229571D01*
X135692242Y-113268276D01*
X135730947Y-113345685D01*
X135730947Y-113655323D01*
X135382604Y-112881228D02*
X135343900Y-112842523D01*
X135305195Y-112765114D01*
X135305195Y-112571590D01*
X135343900Y-112494180D01*
X135382604Y-112455476D01*
X135460014Y-112416771D01*
X135537423Y-112416771D01*
X135653538Y-112455476D01*
X136117995Y-112919933D01*
X136117995Y-112416771D01*
X87049233Y-74366795D02*
X86778300Y-73979747D01*
X86584776Y-74366795D02*
X86584776Y-73553995D01*
X86894414Y-73553995D01*
X86971823Y-73592700D01*
X87010528Y-73631404D01*
X87049233Y-73708814D01*
X87049233Y-73824928D01*
X87010528Y-73902338D01*
X86971823Y-73941042D01*
X86894414Y-73979747D01*
X86584776Y-73979747D01*
X87823328Y-74366795D02*
X87358871Y-74366795D01*
X87591100Y-74366795D02*
X87591100Y-73553995D01*
X87513690Y-73670109D01*
X87436280Y-73747519D01*
X87358871Y-73786223D01*
X79100633Y-74526795D02*
X78829700Y-74139747D01*
X78636176Y-74526795D02*
X78636176Y-73713995D01*
X78945814Y-73713995D01*
X79023223Y-73752700D01*
X79061928Y-73791404D01*
X79100633Y-73868814D01*
X79100633Y-73984928D01*
X79061928Y-74062338D01*
X79023223Y-74101042D01*
X78945814Y-74139747D01*
X78636176Y-74139747D01*
X79410271Y-73791404D02*
X79448976Y-73752700D01*
X79526385Y-73713995D01*
X79719909Y-73713995D01*
X79797319Y-73752700D01*
X79836023Y-73791404D01*
X79874728Y-73868814D01*
X79874728Y-73946223D01*
X79836023Y-74062338D01*
X79371566Y-74526795D01*
X79874728Y-74526795D01*
X128354319Y-79332080D02*
X128020985Y-78855890D01*
X127782890Y-79332080D02*
X127782890Y-78332080D01*
X128163842Y-78332080D01*
X128259080Y-78379700D01*
X128306700Y-78427319D01*
X128354319Y-78522557D01*
X128354319Y-78665414D01*
X128306700Y-78760652D01*
X128259080Y-78808271D01*
X128163842Y-78855890D01*
X127782890Y-78855890D01*
X128782890Y-78808271D02*
X129116223Y-78808271D01*
X129259080Y-79332080D02*
X128782890Y-79332080D01*
X128782890Y-78332080D01*
X129259080Y-78332080D01*
X129640033Y-79284461D02*
X129782890Y-79332080D01*
X130020985Y-79332080D01*
X130116223Y-79284461D01*
X130163842Y-79236842D01*
X130211461Y-79141604D01*
X130211461Y-79046366D01*
X130163842Y-78951128D01*
X130116223Y-78903509D01*
X130020985Y-78855890D01*
X129830509Y-78808271D01*
X129735271Y-78760652D01*
X129687652Y-78713033D01*
X129640033Y-78617795D01*
X129640033Y-78522557D01*
X129687652Y-78427319D01*
X129735271Y-78379700D01*
X129830509Y-78332080D01*
X130068604Y-78332080D01*
X130211461Y-78379700D01*
X130640033Y-78808271D02*
X130973366Y-78808271D01*
X131116223Y-79332080D02*
X130640033Y-79332080D01*
X130640033Y-78332080D01*
X131116223Y-78332080D01*
X131401938Y-78332080D02*
X131973366Y-78332080D01*
X131687652Y-79332080D02*
X131687652Y-78332080D01*
X151878661Y-75551723D02*
X151926280Y-75408866D01*
X151926280Y-75170771D01*
X151878661Y-75075533D01*
X151831042Y-75027914D01*
X151735804Y-74980295D01*
X151640566Y-74980295D01*
X151545328Y-75027914D01*
X151497709Y-75075533D01*
X151450090Y-75170771D01*
X151402471Y-75361247D01*
X151354852Y-75456485D01*
X151307233Y-75504104D01*
X151211995Y-75551723D01*
X151116757Y-75551723D01*
X151021519Y-75504104D01*
X150973900Y-75456485D01*
X150926280Y-75361247D01*
X150926280Y-75123152D01*
X150973900Y-74980295D01*
X150926280Y-74646961D02*
X151926280Y-74408866D01*
X151211995Y-74218390D01*
X151926280Y-74027914D01*
X150926280Y-73789819D01*
X151021519Y-73456485D02*
X150973900Y-73408866D01*
X150926280Y-73313628D01*
X150926280Y-73075533D01*
X150973900Y-72980295D01*
X151021519Y-72932676D01*
X151116757Y-72885057D01*
X151211995Y-72885057D01*
X151354852Y-72932676D01*
X151926280Y-73504104D01*
X151926280Y-72885057D01*
X150926280Y-72551723D02*
X150926280Y-71885057D01*
X151926280Y-72313628D01*
X135766695Y6500076D02*
X134953895Y6500076D01*
X134953895Y6809714D01*
X134992600Y6887123D01*
X135031304Y6925828D01*
X135108714Y6964533D01*
X135224828Y6964533D01*
X135302238Y6925828D01*
X135340942Y6887123D01*
X135379647Y6809714D01*
X135379647Y6500076D01*
X134953895Y7235466D02*
X134953895Y7738628D01*
X135263533Y7467695D01*
X135263533Y7583809D01*
X135302238Y7661219D01*
X135340942Y7699923D01*
X135418352Y7738628D01*
X135611876Y7738628D01*
X135689285Y7699923D01*
X135727990Y7661219D01*
X135766695Y7583809D01*
X135766695Y7351580D01*
X135727990Y7274171D01*
X135689285Y7235466D01*
X135766695Y3925076D02*
X134953895Y3925076D01*
X134953895Y4234714D01*
X134992600Y4312123D01*
X135031304Y4350828D01*
X135108714Y4389533D01*
X135224828Y4389533D01*
X135302238Y4350828D01*
X135340942Y4312123D01*
X135379647Y4234714D01*
X135379647Y3925076D01*
X135224828Y5086219D02*
X135766695Y5086219D01*
X134915190Y4892695D02*
X135495761Y4699171D01*
X135495761Y5202333D01*
X86274333Y-31937695D02*
X86003400Y-31550647D01*
X85809876Y-31937695D02*
X85809876Y-31124895D01*
X86119514Y-31124895D01*
X86196923Y-31163600D01*
X86235628Y-31202304D01*
X86274333Y-31279714D01*
X86274333Y-31395828D01*
X86235628Y-31473238D01*
X86196923Y-31511942D01*
X86119514Y-31550647D01*
X85809876Y-31550647D01*
X86545266Y-31124895D02*
X87048428Y-31124895D01*
X86777495Y-31434533D01*
X86893609Y-31434533D01*
X86971019Y-31473238D01*
X87009723Y-31511942D01*
X87048428Y-31589352D01*
X87048428Y-31782876D01*
X87009723Y-31860285D01*
X86971019Y-31898990D01*
X86893609Y-31937695D01*
X86661380Y-31937695D01*
X86583971Y-31898990D01*
X86545266Y-31860285D01*
X78289533Y-32097695D02*
X78018600Y-31710647D01*
X77825076Y-32097695D02*
X77825076Y-31284895D01*
X78134714Y-31284895D01*
X78212123Y-31323600D01*
X78250828Y-31362304D01*
X78289533Y-31439714D01*
X78289533Y-31555828D01*
X78250828Y-31633238D01*
X78212123Y-31671942D01*
X78134714Y-31710647D01*
X77825076Y-31710647D01*
X78986219Y-31555828D02*
X78986219Y-32097695D01*
X78792695Y-31246190D02*
X78599171Y-31826761D01*
X79102333Y-31826761D01*
X137304761Y-34209523D02*
X137352380Y-34066666D01*
X137352380Y-33828571D01*
X137304761Y-33733333D01*
X137257142Y-33685714D01*
X137161904Y-33638095D01*
X137066666Y-33638095D01*
X136971428Y-33685714D01*
X136923809Y-33733333D01*
X136876190Y-33828571D01*
X136828571Y-34019047D01*
X136780952Y-34114285D01*
X136733333Y-34161904D01*
X136638095Y-34209523D01*
X136542857Y-34209523D01*
X136447619Y-34161904D01*
X136400000Y-34114285D01*
X136352380Y-34019047D01*
X136352380Y-33780952D01*
X136400000Y-33638095D01*
X136352380Y-33304761D02*
X137352380Y-33066666D01*
X136638095Y-32876190D01*
X137352380Y-32685714D01*
X136352380Y-32447619D01*
X136685714Y-31638095D02*
X137352380Y-31638095D01*
X136304761Y-31876190D02*
X137019047Y-32114285D01*
X137019047Y-31495238D01*
X137352380Y-30590476D02*
X137352380Y-31161904D01*
X137352380Y-30876190D02*
X136352380Y-30876190D01*
X136495238Y-30971428D01*
X136590476Y-31066666D01*
X136638095Y-31161904D01*
X128097619Y-27927380D02*
X127764285Y-27451190D01*
X127526190Y-27927380D02*
X127526190Y-26927380D01*
X127907142Y-26927380D01*
X128002380Y-26975000D01*
X128050000Y-27022619D01*
X128097619Y-27117857D01*
X128097619Y-27260714D01*
X128050000Y-27355952D01*
X128002380Y-27403571D01*
X127907142Y-27451190D01*
X127526190Y-27451190D01*
X128526190Y-27403571D02*
X128859523Y-27403571D01*
X129002380Y-27927380D02*
X128526190Y-27927380D01*
X128526190Y-26927380D01*
X129002380Y-26927380D01*
X129383333Y-27879761D02*
X129526190Y-27927380D01*
X129764285Y-27927380D01*
X129859523Y-27879761D01*
X129907142Y-27832142D01*
X129954761Y-27736904D01*
X129954761Y-27641666D01*
X129907142Y-27546428D01*
X129859523Y-27498809D01*
X129764285Y-27451190D01*
X129573809Y-27403571D01*
X129478571Y-27355952D01*
X129430952Y-27308333D01*
X129383333Y-27213095D01*
X129383333Y-27117857D01*
X129430952Y-27022619D01*
X129478571Y-26975000D01*
X129573809Y-26927380D01*
X129811904Y-26927380D01*
X129954761Y-26975000D01*
X130383333Y-27403571D02*
X130716666Y-27403571D01*
X130859523Y-27927380D02*
X130383333Y-27927380D01*
X130383333Y-26927380D01*
X130859523Y-26927380D01*
X131145238Y-26927380D02*
X131716666Y-26927380D01*
X131430952Y-27927380D02*
X131430952Y-26927380D01*
M02*
