M48
; DRILL file {KiCad (5.1.0-0)} date 2020 May 09, Saturday 20:18:00
; FORMAT={-:-/ absolute / metric / decimal}
; #@! TF.CreationDate,2020-05-09T20:18:00+09:00
; #@! TF.GenerationSoftware,Kicad,Pcbnew,(5.1.0-0)
; #@! TF.FileFunction,Plated,1,2,PTH
FMAT,2
METRIC
T1C0.400
T2C0.800
T3C0.813
T4C1.000
T5C1.300
T6C2.000
%
G90
G05
T1
X110.775Y-76.8
X124.714Y-60.223
T3
X98.605Y-57.988
X98.605Y-60.528
X98.605Y-63.068
X98.605Y-65.608
X98.605Y-68.148
X98.605Y-70.688
X98.605Y-73.228
X98.605Y-75.768
X98.605Y-78.308
X98.605Y-80.848
X97.993Y-104.48
X97.993Y-110.48
X83.82Y-31.65
X116.954Y-104.569
X116.954Y-110.569
X133.787Y-133.933
X117.183Y-66.393
X117.183Y-72.393
X21.844Y-85.506
X21.844Y-91.506
X40.767Y-85.57
X40.767Y-91.57
X98.605Y-83.388
X88.9Y-31.65
X98.605Y-85.928
X113.825Y-57.988
X113.825Y-60.528
X113.825Y-63.068
X113.825Y-65.608
X113.825Y-68.148
X113.825Y-70.688
X113.825Y-73.228
X113.825Y-75.768
X113.825Y-78.308
X113.825Y-80.848
X138.983Y-136.933
X113.825Y-83.388
X113.825Y-85.928
X40.856Y-66.482
X40.856Y-72.482
X59.703Y-66.101
X59.703Y-72.101
X21.6Y23.3
X21.6Y17.3
X21.5Y-14.775
X21.5Y-20.775
X79.019Y-61.757
X79.019Y-67.757
X69.415Y-123.775
X69.415Y-129.775
X137.05Y7.1
X59.865Y-99.76
X59.865Y-105.76
X40.575Y-15.0
X40.575Y-21.0
X98.386Y-20.288
X98.386Y-22.828
X98.386Y-25.368
X98.386Y-27.908
X98.386Y-30.448
X98.386Y-32.988
X98.386Y-35.528
X98.386Y-38.068
X98.386Y-40.608
X98.386Y-43.148
X98.386Y-45.688
X98.386Y-48.228
X113.606Y-20.288
X113.606Y-22.828
X113.606Y-25.368
X113.606Y-27.908
X113.606Y-30.448
X113.606Y-32.988
X113.606Y-35.528
X113.606Y-38.068
X113.606Y-40.608
X113.606Y-43.148
X113.606Y-45.688
X135.75Y-22.2
X135.75Y-28.2
X78.902Y-99.722
X78.902Y-105.722
X116.8Y4.0
X116.8Y-2.0
X21.6Y4.3
X21.6Y-1.7
X142.127Y13.55
X147.323Y16.55
X59.675Y-19.325
X59.675Y-25.325
X21.903Y-123.737
X21.903Y-129.737
X114.35Y-90.525
X114.35Y-96.525
X76.746Y-74.079
X81.826Y-74.079
X59.65Y-34.475
X59.65Y-40.475
X114.025Y-10.275
X114.025Y-16.275
X137.05Y4.525
X84.595Y-74.079
X98.044Y-90.612
X98.044Y-96.612
X88.125Y23.175
X88.125Y17.175
X107.44Y-123.762
X107.44Y-129.762
X117.03Y-85.278
X117.03Y-91.278
X136.068Y-78.102
X136.068Y-84.102
X136.055Y-94.828
X136.055Y-100.828
X69.1Y23.5
X69.1Y17.5
X89.675Y-74.079
X78.75Y-0.35
X78.75Y-6.35
X21.5Y-33.65
X21.5Y-39.65
X137.389Y-110.515
X97.725Y4.1
X97.725Y-1.9
X79.184Y-80.464
X79.184Y-86.464
X88.417Y-123.632
X88.417Y-129.632
X40.575Y-33.75
X40.575Y-39.75
X78.65Y-19.325
X78.65Y-25.325
X40.575Y4.2
X40.575Y-1.8
X137.401Y-113.055
X59.675Y-0.25
X59.675Y-6.25
X21.946Y-66.367
X21.946Y-72.367
X75.935Y-31.65
X78.6Y-34.5
X81.015Y-31.65
X113.606Y-48.228
X135.775Y-5.375
X135.775Y-11.375
X116.975Y-10.2
X116.975Y-16.2
X22.123Y-104.658
X22.123Y-110.658
X40.97Y-104.493
X40.97Y-110.493
X107.1Y23.3
X107.1Y17.3
X116.575Y-33.825
X116.575Y-39.825
X59.88Y-80.68
X59.88Y-86.68
X97.525Y-10.5
X97.525Y-16.5
X78.6Y-40.5
T4
X141.6Y-35.2
X144.1Y-35.2
X146.6Y-35.2
X141.774Y-70.942
X144.274Y-70.942
X146.774Y-70.942
T5
X126.3Y-27.475
X132.8Y-27.475
X126.557Y-78.88
X133.057Y-78.88
T2
G00X65.71Y-107.932
M15
G01X65.31Y-107.932
M16
G05
G00X72.06Y-105.392
M15
G01X71.66Y-105.392
M16
G05
G00X84.785Y-88.845
M15
G01X84.385Y-88.845
M16
G05
G00X91.135Y-86.305
M15
G01X90.735Y-86.305
M16
G05
G00X46.644Y-74.556
M15
G01X46.244Y-74.556
M16
G05
G00X52.994Y-72.016
M15
G01X52.594Y-72.016
M16
G05
G00X121.002Y-34.228
M15
G01X121.402Y-34.228
M16
G05
G00X127.352Y-31.688
M15
G01X127.752Y-31.688
M16
G05
G00X46.669Y-112.662
M15
G01X46.269Y-112.662
M16
G05
G00X53.019Y-110.122
M15
G01X52.619Y-110.122
M16
G05
G00X113.337Y-131.707
M15
G01X112.936Y-131.707
M16
G05
G00X119.686Y-129.167
M15
G01X119.286Y-129.167
M16
G05
G00X44.779Y-15.186
M15
G01X45.179Y-15.186
M16
G05
G00X51.129Y-12.646
M15
G01X51.529Y-12.646
M16
G05
G00X84.746Y-107.894
M15
G01X84.346Y-107.894
M16
G05
G00X91.096Y-105.354
M15
G01X90.697Y-105.354
M16
G05
G00X46.646Y-93.622
M15
G01X46.246Y-93.622
M16
G05
G00X52.996Y-91.082
M15
G01X52.596Y-91.082
M16
G05
G00X92.427Y22.884
M15
G01X92.827Y22.884
M16
G05
G00X101.998Y3.737
M15
G01X102.398Y3.737
M16
G05
G00X98.777Y25.424
M15
G01X99.177Y25.424
M16
G05
G00X101.972Y-15.196
M15
G01X102.372Y-15.196
M16
G05
G00X108.322Y-12.656
M15
G01X108.722Y-12.656
M16
G05
G00X65.71Y-69.832
M15
G01X65.31Y-69.832
M16
G05
G00X72.06Y-67.292
M15
G01X71.66Y-67.292
M16
G05
G00X82.922Y-39.089
M15
G01X83.322Y-39.089
M16
G05
G00X89.272Y-36.549
M15
G01X89.672Y-36.549
M16
G05
G00X25.765Y22.865
M15
G01X26.165Y22.865
M16
G05
G00X32.115Y25.405
M15
G01X32.515Y25.405
M16
G05
G00X108.348Y6.277
M15
G01X108.748Y6.277
M16
G05
G00X27.632Y-93.599
M15
G01X27.232Y-93.599
M16
G05
G00X33.982Y-91.059
M15
G01X33.582Y-91.059
M16
G05
G00X103.81Y-93.582
M15
G01X103.41Y-93.582
M16
G05
G00X111.477Y22.897
M15
G01X111.877Y22.897
M16
G05
G00X110.16Y-91.042
M15
G01X109.76Y-91.042
M16
G05
G00X117.827Y25.437
M15
G01X118.227Y25.437
M16
G05
G00X103.823Y-112.631
M15
G01X103.423Y-112.631
M16
G05
G00X110.173Y-110.091
M15
G01X109.773Y-110.091
M16
G05
G00X27.61Y-131.681
M15
G01X27.21Y-131.681
M16
G05
G00X33.96Y-129.142
M15
G01X33.56Y-129.142
M16
G05
G00X122.884Y-112.669
M15
G01X122.484Y-112.669
M16
G05
G00X27.607Y-112.636
M15
G01X27.207Y-112.636
M16
G05
G00X33.957Y-110.096
M15
G01X33.557Y-110.096
M16
G05
G00X122.873Y-93.62
M15
G01X122.473Y-93.62
M16
G05
G00X129.223Y-91.08
M15
G01X128.823Y-91.08
M16
G05
G00X84.734Y-69.796
M15
G01X84.334Y-69.796
M16
G05
G00X91.084Y-67.256
M15
G01X90.684Y-67.256
M16
G05
G00X65.699Y-88.858
M15
G01X65.299Y-88.858
M16
G05
G00X72.049Y-86.317
M15
G01X71.649Y-86.317
M16
G05
G00X141.919Y-103.111
M15
G01X141.519Y-103.111
M16
G05
G00X148.269Y-100.571
M15
G01X147.869Y-100.571
M16
G05
G00X63.834Y-19.907
M15
G01X64.234Y-19.907
M16
G05
G00X70.184Y-17.367
M15
G01X70.584Y-17.367
M16
G05
G00X129.234Y-110.129
M15
G01X128.834Y-110.129
M16
G05
G00X121.015Y-15.178
M15
G01X121.415Y-15.178
M16
G05
G00X127.365Y-12.638
M15
G01X127.765Y-12.638
M16
G05
G00X103.823Y-74.544
M15
G01X103.423Y-74.544
M16
G05
G00X110.173Y-72.004
M15
G01X109.773Y-72.004
M16
G05
G00X63.865Y-0.935
M15
G01X64.265Y-0.935
M16
G05
G00X70.215Y1.605
M15
G01X70.615Y1.605
M16
G05
G00X140.052Y-24.741
M15
G01X140.452Y-24.741
M16
G05
G00X146.402Y-22.201
M15
G01X146.802Y-22.201
M16
G05
G00X25.69Y-15.21
M15
G01X26.09Y-15.21
M16
G05
G00X32.04Y-12.67
M15
G01X32.44Y-12.67
M16
G05
G00X121.002Y3.847
M15
G01X121.402Y3.847
M16
G05
G00X127.352Y6.387
M15
G01X127.752Y6.387
M16
G05
G00X143.857Y-132.786
M15
G01X143.657Y-133.132
M16
G05
G00X144.832Y-126.016
M15
G01X144.632Y-126.363
M16
G05
G00X141.919Y-84.081
M15
G01X141.519Y-84.081
M16
G05
G00X148.269Y-81.541
M15
G01X147.869Y-81.541
M16
G05
G00X27.632Y-74.549
M15
G01X27.232Y-74.549
M16
G05
G00X33.982Y-72.009
M15
G01X33.582Y-72.009
M16
G05
G00X25.747Y3.712
M15
G01X26.147Y3.712
M16
G05
G00X32.097Y6.252
M15
G01X32.497Y6.252
M16
G05
G00X82.865Y-19.985
M15
G01X83.265Y-19.985
M16
G05
G00X89.215Y-17.445
M15
G01X89.615Y-17.445
M16
G05
G00X25.74Y-34.31
M15
G01X26.14Y-34.31
M16
G05
G00X32.09Y-31.77
M15
G01X32.49Y-31.77
M16
G05
G00X44.765Y3.815
M15
G01X45.165Y3.815
M16
G05
G00X44.765Y-34.285
M15
G01X45.165Y-34.285
M16
G05
G00X51.115Y-31.745
M15
G01X51.515Y-31.745
M16
G05
G00X94.312Y-131.707
M15
G01X93.912Y-131.707
M16
G05
G00X100.662Y-129.167
M15
G01X100.262Y-129.167
M16
G05
G00X75.246Y-131.707
M15
G01X74.846Y-131.707
M16
G05
G00X81.596Y-129.167
M15
G01X81.197Y-129.167
M16
G05
G00X73.365Y22.89
M15
G01X73.765Y22.89
M16
G05
G00X79.715Y25.43
M15
G01X80.115Y25.43
M16
G05
G00X140.065Y-5.678
M15
G01X140.465Y-5.678
M16
G05
G00X146.415Y-3.138
M15
G01X146.815Y-3.138
M16
G05
G00X140.62Y26.643
M15
G01X140.82Y26.296
M16
G05
G00X145.994Y22.413
M15
G01X146.194Y22.067
M16
G05
G00X63.771Y-39.112
M15
G01X64.171Y-39.112
M16
G05
G00X70.121Y-36.572
M15
G01X70.521Y-36.572
M16
G05
G00X122.873Y-74.544
M15
G01X122.473Y-74.544
M16
G05
G00X129.223Y-72.004
M15
G01X128.823Y-72.004
M16
G05
G00X82.915Y-0.91
M15
G01X83.315Y-0.91
M16
G05
G00X89.265Y1.63
M15
G01X89.665Y1.63
M16
G05
G00X51.115Y6.355
M15
G01X51.515Y6.355
M16
G05
G00X101.96Y-34.233
M15
G01X102.36Y-34.233
M16
G05
G00X108.31Y-31.693
M15
G01X108.71Y-31.693
M16
G05
T4
G00X143.0Y2.625
M15
G01X143.5Y2.625
M16
G05
G00X144.5Y6.825
M15
G01X145.0Y6.825
M16
G05
G00X148.5Y6.825
M15
G01X149.0Y6.825
M16
G05
G00X151.5Y6.825
M15
G01X152.0Y6.825
M16
G05
G00X143.195Y-113.123
M15
G01X143.695Y-113.123
M16
G05
G00X144.695Y-108.923
M15
G01X145.195Y-108.923
M16
G05
G00X148.695Y-108.923
M15
G01X149.195Y-108.923
M16
G05
G00X151.695Y-108.923
M15
G01X152.195Y-108.923
M16
G05
T6
G00X138.5Y-27.95
M15
G01X138.5Y-27.45
M16
G05
G00X149.7Y-27.95
M15
G01X149.7Y-27.45
M16
G05
G00X138.674Y-78.192
M15
G01X138.674Y-78.692
M16
G05
G00X149.874Y-78.192
M15
G01X149.874Y-78.692
M16
G05
T0
M30
