G04 #@! TF.GenerationSoftware,KiCad,Pcbnew,(5.1.0-0)*
G04 #@! TF.CreationDate,2020-05-09T20:17:28+09:00*
G04 #@! TF.ProjectId,potto50,706f7474-6f35-4302-9e6b-696361645f70,rev?*
G04 #@! TF.SameCoordinates,Original*
G04 #@! TF.FileFunction,Profile,NP*
%FSLAX46Y46*%
G04 Gerber Fmt 4.6, Leading zero omitted, Abs format (unit mm)*
G04 Created by KiCad (PCBNEW (5.1.0-0)) date 2020-05-09 20:17:28*
%MOMM*%
%LPD*%
G04 APERTURE LIST*
%ADD10C,0.050000*%
G04 APERTURE END LIST*
D10*
X81925000Y-51250000D02*
X116338000Y-51245900D01*
X81925000Y-55029100D02*
X81925000Y-51250000D01*
X116522500Y-55029100D02*
X81925000Y-55029100D01*
X75000000Y-51250000D02*
X58553000Y-51245900D01*
X75000000Y-55029100D02*
X75000000Y-51250000D01*
X58737500Y-55029100D02*
X75000000Y-55029100D01*
X20224400Y-46496100D02*
X57841800Y-46496100D01*
X58197400Y-46851700D02*
X58197400Y-50890300D01*
X116693600Y-50890300D02*
X116693600Y-47855000D01*
X117049200Y-47499400D02*
X135248300Y-47499400D01*
X135603900Y-47143800D02*
X135603900Y-38431600D01*
X135959500Y-38076000D02*
X153460100Y-38076000D01*
X153815700Y-37720400D02*
X153815700Y-1525400D01*
X155098400Y7999600D02*
X153777600Y9320400D01*
X153777600Y9320400D02*
X153777600Y17829400D01*
X153777600Y17829400D02*
X141496698Y39165400D01*
X141242700Y39216200D02*
X125215300Y29983300D01*
X125215300Y29983300D02*
X20224400Y29983300D01*
X19868800Y29627700D02*
X19868800Y-46140500D01*
X153815700Y-1525400D02*
X155098400Y-242700D01*
X155098400Y-242700D02*
X155098400Y7999600D01*
X153460100Y-38076000D02*
G75*
G03X153815700Y-37720400I0J355600D01*
G01*
X135959500Y-38076000D02*
G75*
G03X135603900Y-38431600I0J-355600D01*
G01*
X135248300Y-47499400D02*
G75*
G03X135603900Y-47143800I0J355600D01*
G01*
X117049200Y-47499400D02*
G75*
G03X116693600Y-47855000I0J-355600D01*
G01*
X116338000Y-51245900D02*
G75*
G03X116693600Y-50890300I0J355600D01*
G01*
X58197400Y-50890300D02*
G75*
G03X58553000Y-51245900I355600J0D01*
G01*
X58197400Y-46851700D02*
G75*
G03X57841800Y-46496100I-355600J0D01*
G01*
X19868800Y-46140500D02*
G75*
G03X20224400Y-46496100I355600J0D01*
G01*
X20224400Y29983300D02*
G75*
G03X19868800Y29627700I0J-355600D01*
G01*
X141496698Y39165400D02*
G75*
G03X141242700Y39216200I-152399J-101599D01*
G01*
X141681198Y-145440400D02*
G75*
G02X141427200Y-145491200I-152399J101599D01*
G01*
X20408900Y-136258300D02*
G75*
G02X20053300Y-135902700I0J355600D01*
G01*
X20053300Y-60134500D02*
G75*
G02X20408900Y-59778900I355600J0D01*
G01*
X58381900Y-59423300D02*
G75*
G02X58026300Y-59778900I-355600J0D01*
G01*
X58381900Y-55384700D02*
G75*
G02X58737500Y-55029100I355600J0D01*
G01*
X116522500Y-55029100D02*
G75*
G02X116878100Y-55384700I0J-355600D01*
G01*
X117233700Y-58775600D02*
G75*
G02X116878100Y-58420000I0J355600D01*
G01*
X135432800Y-58775600D02*
G75*
G02X135788400Y-59131200I0J-355600D01*
G01*
X136144000Y-68199000D02*
G75*
G02X135788400Y-67843400I0J355600D01*
G01*
X153644600Y-68199000D02*
G75*
G02X154000200Y-68554600I0J-355600D01*
G01*
X155282900Y-106032300D02*
X155282900Y-114274600D01*
X154000200Y-104749600D02*
X155282900Y-106032300D01*
X20053300Y-135902700D02*
X20053300Y-60134500D01*
X125399800Y-136258300D02*
X20408900Y-136258300D01*
X141427200Y-145491200D02*
X125399800Y-136258300D01*
X153962100Y-124104400D02*
X141681198Y-145440400D01*
X153962100Y-115595400D02*
X153962100Y-124104400D01*
X155282900Y-114274600D02*
X153962100Y-115595400D01*
X154000200Y-68554600D02*
X154000200Y-104749600D01*
X136144000Y-68199000D02*
X153644600Y-68199000D01*
X135788400Y-59131200D02*
X135788400Y-67843400D01*
X117233700Y-58775600D02*
X135432800Y-58775600D01*
X116878100Y-55384700D02*
X116878100Y-58420000D01*
X58381900Y-59423300D02*
X58381900Y-55384700D01*
X20408900Y-59778900D02*
X58026300Y-59778900D01*
M02*
