M48
; DRILL file {KiCad (5.1.0-0)} date 2020 May 09, Saturday 20:18:00
; FORMAT={-:-/ absolute / metric / decimal}
; #@! TF.CreationDate,2020-05-09T20:18:00+09:00
; #@! TF.GenerationSoftware,Kicad,Pcbnew,(5.1.0-0)
; #@! TF.FileFunction,NonPlated,1,2,NPTH
FMAT,2
METRIC
T1C0.787
T2C1.200
T3C1.900
T4C4.000
T5C4.800
%
G90
G05
T1
X75.91Y-54.904
X77.18Y-54.904
X78.45Y-54.904
X79.72Y-54.904
X80.99Y-54.904
X75.91Y-51.396
X77.18Y-51.396
X78.45Y-51.396
X79.72Y-51.396
X80.99Y-51.396
T2
X146.55Y4.725
X153.55Y4.725
X146.745Y-111.023
X153.745Y-111.023
T3
X119.512Y-36.768
X130.512Y-36.768
X43.509Y-107.582
X54.509Y-107.582
X121.176Y-126.627
X43.289Y-17.726
X54.289Y-17.726
X81.587Y-102.814
X92.587Y-102.814
X43.486Y-88.542
X54.486Y-88.542
X24.275Y20.325
X35.275Y20.325
X90.937Y20.344
X101.937Y20.344
X100.482Y-17.736
X111.482Y-17.736
X62.55Y-64.752
X73.55Y-64.752
X81.432Y-41.629
X100.508Y1.197
X110.176Y-126.627
X111.508Y1.197
X24.472Y-88.519
X35.472Y-88.519
X109.987Y20.357
X120.987Y20.357
X100.663Y-107.551
X111.663Y-107.551
X24.45Y-126.601
X35.45Y-126.601
X119.724Y-107.589
X130.724Y-107.589
X43.275Y-36.825
X54.275Y-36.825
X92.432Y-41.629
X100.65Y-88.502
X111.65Y-88.502
X24.447Y-107.556
X35.447Y-107.556
X119.713Y-88.54
X130.713Y-88.54
X81.574Y-64.716
X92.574Y-64.716
X62.539Y-83.777
X73.539Y-83.777
X138.759Y-98.031
X149.759Y-98.031
X62.344Y-22.447
X73.344Y-22.447
X119.525Y-17.718
X130.525Y-17.718
X91.152Y-126.627
X100.663Y-69.464
X111.663Y-69.464
X71.875Y20.35
X82.875Y20.35
X62.375Y-3.475
X73.375Y-3.475
X138.575Y-8.218
X149.575Y-8.218
X137.675Y26.663
X143.175Y17.137
X62.281Y-41.652
X73.281Y-41.652
X119.713Y-69.464
X130.713Y-69.464
X81.425Y-3.45
X92.425Y-3.45
X137.877Y-132.982
X143.377Y-123.456
X24.2Y-17.75
X24.472Y-69.469
X35.472Y-69.469
X73.55Y-102.852
X81.625Y-83.765
X92.625Y-83.765
X43.484Y-69.477
X54.484Y-69.477
X35.2Y-17.75
X119.512Y1.307
X24.257Y1.172
X35.257Y1.172
X81.375Y-22.525
X24.25Y-36.85
X35.25Y-36.85
X54.275Y1.275
X102.152Y-126.627
X92.375Y-22.525
X72.087Y-126.627
X43.275Y1.275
X100.47Y-36.773
X111.47Y-36.773
X83.087Y-126.627
X130.512Y1.307
X62.55Y-102.852
T4
X140.627Y-128.219
X125.012Y1.307
X144.259Y-79.001
X29.972Y-69.469
X68.05Y-102.852
X87.125Y-83.765
X125.012Y-36.768
X49.009Y-107.582
X29.757Y1.172
X86.875Y-22.525
X29.75Y-36.85
X87.087Y-102.814
X48.775Y1.275
X105.97Y-36.773
X115.676Y-126.627
X48.789Y-17.726
X48.986Y-88.542
X96.437Y20.344
X105.982Y-17.736
X29.775Y20.325
X68.05Y-64.752
X86.932Y-41.629
X48.984Y-69.477
X106.008Y1.197
X125.025Y-17.718
X29.972Y-88.519
X115.487Y20.357
X106.163Y-107.551
X29.95Y-126.601
X125.224Y-107.589
X48.775Y-36.825
X96.652Y-126.627
X77.587Y-126.627
X106.15Y-88.502
X29.947Y-107.556
X77.375Y20.35
X144.075Y-8.218
X140.425Y21.9
X125.213Y-88.54
X87.074Y-64.716
X67.781Y-41.652
X125.213Y-69.464
X68.039Y-83.777
X144.259Y-98.031
X67.844Y-22.447
X106.163Y-69.464
X86.925Y-3.45
X67.875Y-3.475
X144.062Y-27.281
X29.7Y-17.75
T5
X135.375Y-88.425
X128.916Y-121.073
X86.65Y8.5
X135.35Y-17.95
X128.891Y14.698
X86.675Y-114.875
X39.45Y-27.275
X39.475Y-79.1
X39.5Y-117.1
X39.475Y10.725
T0
M30
