G04 #@! TF.GenerationSoftware,KiCad,Pcbnew,(5.1.0-0)*
G04 #@! TF.CreationDate,2020-05-09T20:23:00+09:00*
G04 #@! TF.ProjectId,potto50-bottom-plate,706f7474-6f35-4302-9d62-6f74746f6d2d,rev?*
G04 #@! TF.SameCoordinates,Original*
G04 #@! TF.FileFunction,Profile,NP*
%FSLAX46Y46*%
G04 Gerber Fmt 4.6, Leading zero omitted, Abs format (unit mm)*
G04 Created by KiCad (PCBNEW (5.1.0-0)) date 2020-05-09 20:23:00*
%MOMM*%
%LPD*%
G04 APERTURE LIST*
%ADD10C,0.050000*%
G04 APERTURE END LIST*
D10*
X178384200Y-128384300D02*
X172313600Y-128384300D01*
X172313600Y-124993400D02*
X172313600Y-128384300D01*
X178384200Y-124993400D02*
X172313600Y-124993400D01*
X178384200Y-128384300D02*
X178384200Y-124993400D01*
X172173900Y-73736200D02*
X172199300Y-73748900D01*
X172173900Y-77216000D02*
X172173900Y-73736200D01*
X178206400Y-77216000D02*
X172173900Y-77216000D01*
X178206400Y-73748900D02*
X178206400Y-77216000D01*
X172199300Y-73748900D02*
X178206400Y-73748900D01*
X161887300Y-99192700D02*
G75*
G03X162242900Y-98837100I0J355600D01*
G01*
X162598500Y-95446200D02*
G75*
G03X162242900Y-95801800I0J-355600D01*
G01*
X180797600Y-95446200D02*
G75*
G03X181153200Y-95090600I0J355600D01*
G01*
X181508800Y-86022800D02*
G75*
G03X181153200Y-86378400I0J-355600D01*
G01*
X199009400Y-86022800D02*
G75*
G03X199365000Y-85667200I0J355600D01*
G01*
X65773700Y-17963500D02*
G75*
G03X65418100Y-18319100I0J-355600D01*
G01*
X65418100Y-94087300D02*
G75*
G03X65773700Y-94442900I355600J0D01*
G01*
X103746700Y-94798500D02*
G75*
G03X103391100Y-94442900I-355600J0D01*
G01*
X103746700Y-98837100D02*
G75*
G03X104102300Y-99192700I355600J0D01*
G01*
X187045998Y-8781400D02*
G75*
G03X186792000Y-8730600I-152399J-101599D01*
G01*
X186792000Y-8730600D02*
X170764600Y-17963500D01*
X199326900Y-30117400D02*
X187045998Y-8781400D01*
X199326900Y-38626400D02*
X199326900Y-30117400D01*
X200647700Y-39947200D02*
X199326900Y-38626400D01*
X199365000Y-85667200D02*
X199365000Y-49472200D01*
X181508800Y-86022800D02*
X199009400Y-86022800D01*
X181153200Y-95090600D02*
X181153200Y-86378400D01*
X200647700Y-48189500D02*
X200647700Y-39947200D01*
X199365000Y-49472200D02*
X200647700Y-48189500D01*
X65418100Y-18319100D02*
X65418100Y-94087300D01*
X170764600Y-17963500D02*
X65773700Y-17963500D01*
X162598500Y-95446200D02*
X180797600Y-95446200D01*
X162242900Y-98837100D02*
X162242900Y-95801800D01*
X103746700Y-94798500D02*
X103746700Y-98837100D01*
X65773700Y-94442900D02*
X103391100Y-94442900D01*
X65602600Y-183849500D02*
X65602600Y-108081300D01*
X199549500Y-152696400D02*
X200832200Y-153979100D01*
X200832200Y-153979100D02*
X200832200Y-162221400D01*
X199193900Y-116145800D02*
G75*
G02X199549500Y-116501400I0J-355600D01*
G01*
X181693300Y-116145800D02*
G75*
G02X181337700Y-115790200I0J355600D01*
G01*
X180982100Y-106722400D02*
G75*
G02X181337700Y-107078000I0J-355600D01*
G01*
X162783000Y-106722400D02*
G75*
G02X162427400Y-106366800I0J355600D01*
G01*
X162071800Y-102975900D02*
G75*
G02X162427400Y-103331500I0J-355600D01*
G01*
X103931200Y-103331500D02*
G75*
G02X104286800Y-102975900I355600J0D01*
G01*
X103931200Y-107370100D02*
G75*
G02X103575600Y-107725700I-355600J0D01*
G01*
X65602600Y-108081300D02*
G75*
G02X65958200Y-107725700I355600J0D01*
G01*
X65958200Y-184205100D02*
G75*
G02X65602600Y-183849500I0J355600D01*
G01*
X187230498Y-193387200D02*
G75*
G02X186976500Y-193438000I-152399J101599D01*
G01*
X127474300Y-99196800D02*
X161887300Y-99192700D01*
X120549300Y-102975900D02*
X120549300Y-99196800D01*
X120549300Y-99196800D02*
X104102300Y-99192700D01*
X162071800Y-102975900D02*
X127474300Y-102975900D01*
X127474300Y-102975900D02*
X127474300Y-99196800D01*
X65958200Y-107725700D02*
X103575600Y-107725700D01*
X103931200Y-107370100D02*
X103931200Y-103331500D01*
X162427400Y-103331500D02*
X162427400Y-106366800D01*
X162783000Y-106722400D02*
X180982100Y-106722400D01*
X181337700Y-107078000D02*
X181337700Y-115790200D01*
X181693300Y-116145800D02*
X199193900Y-116145800D01*
X199549500Y-116501400D02*
X199549500Y-152696400D01*
X200832200Y-162221400D02*
X199511400Y-163542200D01*
X199511400Y-163542200D02*
X199511400Y-172051200D01*
X199511400Y-172051200D02*
X187230498Y-193387200D01*
X186976500Y-193438000D02*
X170949100Y-184205100D01*
X170949100Y-184205100D02*
X65958200Y-184205100D01*
X104286800Y-102975900D02*
X120549300Y-102975900D01*
M02*
