G04 #@! TF.GenerationSoftware,KiCad,Pcbnew,(5.1.0-0)*
G04 #@! TF.CreationDate,2020-05-09T20:23:00+09:00*
G04 #@! TF.ProjectId,potto50-bottom-plate,706f7474-6f35-4302-9d62-6f74746f6d2d,rev?*
G04 #@! TF.SameCoordinates,Original*
G04 #@! TF.FileFunction,Soldermask,Bot*
G04 #@! TF.FilePolarity,Negative*
%FSLAX46Y46*%
G04 Gerber Fmt 4.6, Leading zero omitted, Abs format (unit mm)*
G04 Created by KiCad (PCBNEW (5.1.0-0)) date 2020-05-09 20:23:00*
%MOMM*%
%LPD*%
G04 APERTURE LIST*
%ADD10C,0.100000*%
G04 APERTURE END LIST*
D10*
G36*
X174709849Y-167844616D02*
G01*
X174821034Y-167866732D01*
X175030503Y-167953497D01*
X175219020Y-168079460D01*
X175379340Y-168239780D01*
X175505303Y-168428297D01*
X175592068Y-168637766D01*
X175636300Y-168860136D01*
X175636300Y-169086864D01*
X175592068Y-169309234D01*
X175505303Y-169518703D01*
X175379340Y-169707220D01*
X175219020Y-169867540D01*
X175030503Y-169993503D01*
X174821034Y-170080268D01*
X174709849Y-170102384D01*
X174598665Y-170124500D01*
X174371935Y-170124500D01*
X174260751Y-170102384D01*
X174149566Y-170080268D01*
X173940097Y-169993503D01*
X173751580Y-169867540D01*
X173591260Y-169707220D01*
X173465297Y-169518703D01*
X173378532Y-169309234D01*
X173334300Y-169086864D01*
X173334300Y-168860136D01*
X173378532Y-168637766D01*
X173465297Y-168428297D01*
X173591260Y-168239780D01*
X173751580Y-168079460D01*
X173940097Y-167953497D01*
X174149566Y-167866732D01*
X174260751Y-167844616D01*
X174371935Y-167822500D01*
X174598665Y-167822500D01*
X174709849Y-167844616D01*
X174709849Y-167844616D01*
G37*
G36*
X85251049Y-163894916D02*
G01*
X85362234Y-163917032D01*
X85571703Y-164003797D01*
X85760220Y-164129760D01*
X85920540Y-164290080D01*
X86046503Y-164478597D01*
X86133268Y-164688066D01*
X86177500Y-164910436D01*
X86177500Y-165137164D01*
X86133268Y-165359534D01*
X86046503Y-165569003D01*
X85920540Y-165757520D01*
X85760220Y-165917840D01*
X85571703Y-166043803D01*
X85362234Y-166130568D01*
X85251049Y-166152684D01*
X85139865Y-166174800D01*
X84913135Y-166174800D01*
X84801951Y-166152684D01*
X84690766Y-166130568D01*
X84481297Y-166043803D01*
X84292780Y-165917840D01*
X84132460Y-165757520D01*
X84006497Y-165569003D01*
X83919732Y-165359534D01*
X83875500Y-165137164D01*
X83875500Y-164910436D01*
X83919732Y-164688066D01*
X84006497Y-164478597D01*
X84132460Y-164290080D01*
X84292780Y-164129760D01*
X84481297Y-164003797D01*
X84690766Y-163917032D01*
X84801951Y-163894916D01*
X84913135Y-163872800D01*
X85139865Y-163872800D01*
X85251049Y-163894916D01*
X85251049Y-163894916D01*
G37*
G36*
X132456949Y-161672416D02*
G01*
X132568134Y-161694532D01*
X132777603Y-161781297D01*
X132966120Y-161907260D01*
X133126440Y-162067580D01*
X133252403Y-162256097D01*
X133339168Y-162465566D01*
X133383400Y-162687936D01*
X133383400Y-162914664D01*
X133339168Y-163137034D01*
X133252403Y-163346503D01*
X133126440Y-163535020D01*
X132966120Y-163695340D01*
X132777603Y-163821303D01*
X132568134Y-163908068D01*
X132456949Y-163930184D01*
X132345765Y-163952300D01*
X132119035Y-163952300D01*
X132007851Y-163930184D01*
X131896666Y-163908068D01*
X131687197Y-163821303D01*
X131498680Y-163695340D01*
X131338360Y-163535020D01*
X131212397Y-163346503D01*
X131125632Y-163137034D01*
X131081400Y-162914664D01*
X131081400Y-162687936D01*
X131125632Y-162465566D01*
X131212397Y-162256097D01*
X131338360Y-162067580D01*
X131498680Y-161907260D01*
X131687197Y-161781297D01*
X131896666Y-161694532D01*
X132007851Y-161672416D01*
X132119035Y-161650300D01*
X132345765Y-161650300D01*
X132456949Y-161672416D01*
X132456949Y-161672416D01*
G37*
G36*
X181199549Y-135269116D02*
G01*
X181310734Y-135291232D01*
X181520203Y-135377997D01*
X181708720Y-135503960D01*
X181869040Y-135664280D01*
X181995003Y-135852797D01*
X182081768Y-136062266D01*
X182126000Y-136284636D01*
X182126000Y-136511364D01*
X182081768Y-136733734D01*
X181995003Y-136943203D01*
X181869040Y-137131720D01*
X181708720Y-137292040D01*
X181520203Y-137418003D01*
X181310734Y-137504768D01*
X181199549Y-137526884D01*
X181088365Y-137549000D01*
X180861635Y-137549000D01*
X180750451Y-137526884D01*
X180639266Y-137504768D01*
X180429797Y-137418003D01*
X180241280Y-137292040D01*
X180080960Y-137131720D01*
X179954997Y-136943203D01*
X179868232Y-136733734D01*
X179824000Y-136511364D01*
X179824000Y-136284636D01*
X179868232Y-136062266D01*
X179954997Y-135852797D01*
X180080960Y-135664280D01*
X180241280Y-135503960D01*
X180429797Y-135377997D01*
X180639266Y-135291232D01*
X180750451Y-135269116D01*
X180861635Y-135247000D01*
X181088365Y-135247000D01*
X181199549Y-135269116D01*
X181199549Y-135269116D01*
G37*
G36*
X85251049Y-125921916D02*
G01*
X85362234Y-125944032D01*
X85571703Y-126030797D01*
X85760220Y-126156760D01*
X85920540Y-126317080D01*
X86046503Y-126505597D01*
X86133268Y-126715066D01*
X86177500Y-126937436D01*
X86177500Y-127164164D01*
X86133268Y-127386534D01*
X86046503Y-127596003D01*
X85920540Y-127784520D01*
X85760220Y-127944840D01*
X85571703Y-128070803D01*
X85362234Y-128157568D01*
X85251049Y-128179684D01*
X85139865Y-128201800D01*
X84913135Y-128201800D01*
X84801951Y-128179684D01*
X84690766Y-128157568D01*
X84481297Y-128070803D01*
X84292780Y-127944840D01*
X84132460Y-127784520D01*
X84006497Y-127596003D01*
X83919732Y-127386534D01*
X83875500Y-127164164D01*
X83875500Y-126937436D01*
X83919732Y-126715066D01*
X84006497Y-126505597D01*
X84132460Y-126317080D01*
X84292780Y-126156760D01*
X84481297Y-126030797D01*
X84690766Y-125944032D01*
X84801951Y-125921916D01*
X84913135Y-125899800D01*
X85139865Y-125899800D01*
X85251049Y-125921916D01*
X85251049Y-125921916D01*
G37*
G36*
X126669014Y-102423189D02*
G01*
X126749945Y-102456712D01*
X126822780Y-102505379D01*
X126884721Y-102567320D01*
X126933388Y-102640155D01*
X126966911Y-102721086D01*
X126984000Y-102807001D01*
X126984000Y-102894599D01*
X126966911Y-102980514D01*
X126933388Y-103061445D01*
X126884721Y-103134280D01*
X126822780Y-103196221D01*
X126749945Y-103244888D01*
X126749944Y-103244889D01*
X126749943Y-103244889D01*
X126669014Y-103278411D01*
X126583101Y-103295500D01*
X126495499Y-103295500D01*
X126409586Y-103278411D01*
X126328657Y-103244889D01*
X126328656Y-103244889D01*
X126328655Y-103244888D01*
X126255820Y-103196221D01*
X126193879Y-103134280D01*
X126145212Y-103061445D01*
X126111689Y-102980514D01*
X126094600Y-102894599D01*
X126094600Y-102807001D01*
X126111689Y-102721086D01*
X126145212Y-102640155D01*
X126193879Y-102567320D01*
X126255820Y-102505379D01*
X126328655Y-102456712D01*
X126409586Y-102423189D01*
X126495499Y-102406100D01*
X126583101Y-102406100D01*
X126669014Y-102423189D01*
X126669014Y-102423189D01*
G37*
G36*
X125399014Y-102423189D02*
G01*
X125479945Y-102456712D01*
X125552780Y-102505379D01*
X125614721Y-102567320D01*
X125663388Y-102640155D01*
X125696911Y-102721086D01*
X125714000Y-102807001D01*
X125714000Y-102894599D01*
X125696911Y-102980514D01*
X125663388Y-103061445D01*
X125614721Y-103134280D01*
X125552780Y-103196221D01*
X125479945Y-103244888D01*
X125479944Y-103244889D01*
X125479943Y-103244889D01*
X125399014Y-103278411D01*
X125313101Y-103295500D01*
X125225499Y-103295500D01*
X125139586Y-103278411D01*
X125058657Y-103244889D01*
X125058656Y-103244889D01*
X125058655Y-103244888D01*
X124985820Y-103196221D01*
X124923879Y-103134280D01*
X124875212Y-103061445D01*
X124841689Y-102980514D01*
X124824600Y-102894599D01*
X124824600Y-102807001D01*
X124841689Y-102721086D01*
X124875212Y-102640155D01*
X124923879Y-102567320D01*
X124985820Y-102505379D01*
X125058655Y-102456712D01*
X125139586Y-102423189D01*
X125225499Y-102406100D01*
X125313101Y-102406100D01*
X125399014Y-102423189D01*
X125399014Y-102423189D01*
G37*
G36*
X124129014Y-102423189D02*
G01*
X124209945Y-102456712D01*
X124282780Y-102505379D01*
X124344721Y-102567320D01*
X124393388Y-102640155D01*
X124426911Y-102721086D01*
X124444000Y-102807001D01*
X124444000Y-102894599D01*
X124426911Y-102980514D01*
X124393388Y-103061445D01*
X124344721Y-103134280D01*
X124282780Y-103196221D01*
X124209945Y-103244888D01*
X124209944Y-103244889D01*
X124209943Y-103244889D01*
X124129014Y-103278411D01*
X124043101Y-103295500D01*
X123955499Y-103295500D01*
X123869586Y-103278411D01*
X123788657Y-103244889D01*
X123788656Y-103244889D01*
X123788655Y-103244888D01*
X123715820Y-103196221D01*
X123653879Y-103134280D01*
X123605212Y-103061445D01*
X123571689Y-102980514D01*
X123554600Y-102894599D01*
X123554600Y-102807001D01*
X123571689Y-102721086D01*
X123605212Y-102640155D01*
X123653879Y-102567320D01*
X123715820Y-102505379D01*
X123788655Y-102456712D01*
X123869586Y-102423189D01*
X123955499Y-102406100D01*
X124043101Y-102406100D01*
X124129014Y-102423189D01*
X124129014Y-102423189D01*
G37*
G36*
X122859014Y-102423189D02*
G01*
X122939945Y-102456712D01*
X123012780Y-102505379D01*
X123074721Y-102567320D01*
X123123388Y-102640155D01*
X123156911Y-102721086D01*
X123174000Y-102807001D01*
X123174000Y-102894599D01*
X123156911Y-102980514D01*
X123123388Y-103061445D01*
X123074721Y-103134280D01*
X123012780Y-103196221D01*
X122939945Y-103244888D01*
X122939944Y-103244889D01*
X122939943Y-103244889D01*
X122859014Y-103278411D01*
X122773101Y-103295500D01*
X122685499Y-103295500D01*
X122599586Y-103278411D01*
X122518657Y-103244889D01*
X122518656Y-103244889D01*
X122518655Y-103244888D01*
X122445820Y-103196221D01*
X122383879Y-103134280D01*
X122335212Y-103061445D01*
X122301689Y-102980514D01*
X122284600Y-102894599D01*
X122284600Y-102807001D01*
X122301689Y-102721086D01*
X122335212Y-102640155D01*
X122383879Y-102567320D01*
X122445820Y-102505379D01*
X122518655Y-102456712D01*
X122599586Y-102423189D01*
X122685499Y-102406100D01*
X122773101Y-102406100D01*
X122859014Y-102423189D01*
X122859014Y-102423189D01*
G37*
G36*
X121589014Y-102423189D02*
G01*
X121669945Y-102456712D01*
X121742780Y-102505379D01*
X121804721Y-102567320D01*
X121853388Y-102640155D01*
X121886911Y-102721086D01*
X121904000Y-102807001D01*
X121904000Y-102894599D01*
X121886911Y-102980514D01*
X121853388Y-103061445D01*
X121804721Y-103134280D01*
X121742780Y-103196221D01*
X121669945Y-103244888D01*
X121669944Y-103244889D01*
X121669943Y-103244889D01*
X121589014Y-103278411D01*
X121503101Y-103295500D01*
X121415499Y-103295500D01*
X121329586Y-103278411D01*
X121248657Y-103244889D01*
X121248656Y-103244889D01*
X121248655Y-103244888D01*
X121175820Y-103196221D01*
X121113879Y-103134280D01*
X121065212Y-103061445D01*
X121031689Y-102980514D01*
X121014600Y-102894599D01*
X121014600Y-102807001D01*
X121031689Y-102721086D01*
X121065212Y-102640155D01*
X121113879Y-102567320D01*
X121175820Y-102505379D01*
X121248655Y-102456712D01*
X121329586Y-102423189D01*
X121415499Y-102406100D01*
X121503101Y-102406100D01*
X121589014Y-102423189D01*
X121589014Y-102423189D01*
G37*
G36*
X126669014Y-98915189D02*
G01*
X126749945Y-98948712D01*
X126822780Y-98997379D01*
X126884721Y-99059320D01*
X126933388Y-99132155D01*
X126966911Y-99213086D01*
X126984000Y-99299001D01*
X126984000Y-99386599D01*
X126966911Y-99472514D01*
X126933388Y-99553445D01*
X126884721Y-99626280D01*
X126822780Y-99688221D01*
X126749945Y-99736888D01*
X126749944Y-99736889D01*
X126749943Y-99736889D01*
X126669014Y-99770411D01*
X126583101Y-99787500D01*
X126495499Y-99787500D01*
X126409586Y-99770411D01*
X126328657Y-99736889D01*
X126328656Y-99736889D01*
X126328655Y-99736888D01*
X126255820Y-99688221D01*
X126193879Y-99626280D01*
X126145212Y-99553445D01*
X126111689Y-99472514D01*
X126094600Y-99386599D01*
X126094600Y-99299001D01*
X126111689Y-99213086D01*
X126145212Y-99132155D01*
X126193879Y-99059320D01*
X126255820Y-98997379D01*
X126328655Y-98948712D01*
X126409586Y-98915189D01*
X126495499Y-98898100D01*
X126583101Y-98898100D01*
X126669014Y-98915189D01*
X126669014Y-98915189D01*
G37*
G36*
X122859014Y-98915189D02*
G01*
X122939945Y-98948712D01*
X123012780Y-98997379D01*
X123074721Y-99059320D01*
X123123388Y-99132155D01*
X123156911Y-99213086D01*
X123174000Y-99299001D01*
X123174000Y-99386599D01*
X123156911Y-99472514D01*
X123123388Y-99553445D01*
X123074721Y-99626280D01*
X123012780Y-99688221D01*
X122939945Y-99736888D01*
X122939944Y-99736889D01*
X122939943Y-99736889D01*
X122859014Y-99770411D01*
X122773101Y-99787500D01*
X122685499Y-99787500D01*
X122599586Y-99770411D01*
X122518657Y-99736889D01*
X122518656Y-99736889D01*
X122518655Y-99736888D01*
X122445820Y-99688221D01*
X122383879Y-99626280D01*
X122335212Y-99553445D01*
X122301689Y-99472514D01*
X122284600Y-99386599D01*
X122284600Y-99299001D01*
X122301689Y-99213086D01*
X122335212Y-99132155D01*
X122383879Y-99059320D01*
X122445820Y-98997379D01*
X122518655Y-98948712D01*
X122599586Y-98915189D01*
X122685499Y-98898100D01*
X122773101Y-98898100D01*
X122859014Y-98915189D01*
X122859014Y-98915189D01*
G37*
G36*
X125399014Y-98915189D02*
G01*
X125479945Y-98948712D01*
X125552780Y-98997379D01*
X125614721Y-99059320D01*
X125663388Y-99132155D01*
X125696911Y-99213086D01*
X125714000Y-99299001D01*
X125714000Y-99386599D01*
X125696911Y-99472514D01*
X125663388Y-99553445D01*
X125614721Y-99626280D01*
X125552780Y-99688221D01*
X125479945Y-99736888D01*
X125479944Y-99736889D01*
X125479943Y-99736889D01*
X125399014Y-99770411D01*
X125313101Y-99787500D01*
X125225499Y-99787500D01*
X125139586Y-99770411D01*
X125058657Y-99736889D01*
X125058656Y-99736889D01*
X125058655Y-99736888D01*
X124985820Y-99688221D01*
X124923879Y-99626280D01*
X124875212Y-99553445D01*
X124841689Y-99472514D01*
X124824600Y-99386599D01*
X124824600Y-99299001D01*
X124841689Y-99213086D01*
X124875212Y-99132155D01*
X124923879Y-99059320D01*
X124985820Y-98997379D01*
X125058655Y-98948712D01*
X125139586Y-98915189D01*
X125225499Y-98898100D01*
X125313101Y-98898100D01*
X125399014Y-98915189D01*
X125399014Y-98915189D01*
G37*
G36*
X124129014Y-98915189D02*
G01*
X124209945Y-98948712D01*
X124282780Y-98997379D01*
X124344721Y-99059320D01*
X124393388Y-99132155D01*
X124426911Y-99213086D01*
X124444000Y-99299001D01*
X124444000Y-99386599D01*
X124426911Y-99472514D01*
X124393388Y-99553445D01*
X124344721Y-99626280D01*
X124282780Y-99688221D01*
X124209945Y-99736888D01*
X124209944Y-99736889D01*
X124209943Y-99736889D01*
X124129014Y-99770411D01*
X124043101Y-99787500D01*
X123955499Y-99787500D01*
X123869586Y-99770411D01*
X123788657Y-99736889D01*
X123788656Y-99736889D01*
X123788655Y-99736888D01*
X123715820Y-99688221D01*
X123653879Y-99626280D01*
X123605212Y-99553445D01*
X123571689Y-99472514D01*
X123554600Y-99386599D01*
X123554600Y-99299001D01*
X123571689Y-99213086D01*
X123605212Y-99132155D01*
X123653879Y-99059320D01*
X123715820Y-98997379D01*
X123788655Y-98948712D01*
X123869586Y-98915189D01*
X123955499Y-98898100D01*
X124043101Y-98898100D01*
X124129014Y-98915189D01*
X124129014Y-98915189D01*
G37*
G36*
X121589014Y-98915189D02*
G01*
X121669945Y-98948712D01*
X121742780Y-98997379D01*
X121804721Y-99059320D01*
X121853388Y-99132155D01*
X121886911Y-99213086D01*
X121904000Y-99299001D01*
X121904000Y-99386599D01*
X121886911Y-99472514D01*
X121853388Y-99553445D01*
X121804721Y-99626280D01*
X121742780Y-99688221D01*
X121669945Y-99736888D01*
X121669944Y-99736889D01*
X121669943Y-99736889D01*
X121589014Y-99770411D01*
X121503101Y-99787500D01*
X121415499Y-99787500D01*
X121329586Y-99770411D01*
X121248657Y-99736889D01*
X121248656Y-99736889D01*
X121248655Y-99736888D01*
X121175820Y-99688221D01*
X121113879Y-99626280D01*
X121065212Y-99553445D01*
X121031689Y-99472514D01*
X121014600Y-99386599D01*
X121014600Y-99299001D01*
X121031689Y-99213086D01*
X121065212Y-99132155D01*
X121113879Y-99059320D01*
X121175820Y-98997379D01*
X121248655Y-98948712D01*
X121329586Y-98915189D01*
X121415499Y-98898100D01*
X121503101Y-98898100D01*
X121589014Y-98915189D01*
X121589014Y-98915189D01*
G37*
G36*
X85212949Y-74194816D02*
G01*
X85324134Y-74216932D01*
X85533603Y-74303697D01*
X85722120Y-74429660D01*
X85882440Y-74589980D01*
X86008403Y-74778497D01*
X86095168Y-74987966D01*
X86139400Y-75210336D01*
X86139400Y-75437064D01*
X86095168Y-75659434D01*
X86008403Y-75868903D01*
X85882440Y-76057420D01*
X85722120Y-76217740D01*
X85533603Y-76343703D01*
X85324134Y-76430468D01*
X85212949Y-76452584D01*
X85101765Y-76474700D01*
X84875035Y-76474700D01*
X84763851Y-76452584D01*
X84652666Y-76430468D01*
X84443197Y-76343703D01*
X84254680Y-76217740D01*
X84094360Y-76057420D01*
X83968397Y-75868903D01*
X83881632Y-75659434D01*
X83837400Y-75437064D01*
X83837400Y-75210336D01*
X83881632Y-74987966D01*
X83968397Y-74778497D01*
X84094360Y-74589980D01*
X84254680Y-74429660D01*
X84443197Y-74303697D01*
X84652666Y-74216932D01*
X84763851Y-74194816D01*
X84875035Y-74172700D01*
X85101765Y-74172700D01*
X85212949Y-74194816D01*
X85212949Y-74194816D01*
G37*
G36*
X181161449Y-64860316D02*
G01*
X181272634Y-64882432D01*
X181482103Y-64969197D01*
X181670620Y-65095160D01*
X181830940Y-65255480D01*
X181956903Y-65443997D01*
X182043668Y-65653466D01*
X182087900Y-65875836D01*
X182087900Y-66102564D01*
X182043668Y-66324934D01*
X181956903Y-66534403D01*
X181830940Y-66722920D01*
X181670620Y-66883240D01*
X181482103Y-67009203D01*
X181272634Y-67095968D01*
X181161449Y-67118084D01*
X181050265Y-67140200D01*
X180823535Y-67140200D01*
X180712351Y-67118084D01*
X180601166Y-67095968D01*
X180391697Y-67009203D01*
X180203180Y-66883240D01*
X180042860Y-66722920D01*
X179916897Y-66534403D01*
X179830132Y-66324934D01*
X179785900Y-66102564D01*
X179785900Y-65875836D01*
X179830132Y-65653466D01*
X179916897Y-65443997D01*
X180042860Y-65255480D01*
X180203180Y-65095160D01*
X180391697Y-64969197D01*
X180601166Y-64882432D01*
X180712351Y-64860316D01*
X180823535Y-64838200D01*
X181050265Y-64838200D01*
X181161449Y-64860316D01*
X181161449Y-64860316D01*
G37*
G36*
X132456949Y-38355416D02*
G01*
X132568134Y-38377532D01*
X132777603Y-38464297D01*
X132966120Y-38590260D01*
X133126440Y-38750580D01*
X133252403Y-38939097D01*
X133339168Y-39148566D01*
X133383400Y-39370936D01*
X133383400Y-39597664D01*
X133339168Y-39820034D01*
X133252403Y-40029503D01*
X133126440Y-40218020D01*
X132966120Y-40378340D01*
X132777603Y-40504303D01*
X132568134Y-40591068D01*
X132456949Y-40613184D01*
X132345765Y-40635300D01*
X132119035Y-40635300D01*
X132007851Y-40613184D01*
X131896666Y-40591068D01*
X131687197Y-40504303D01*
X131498680Y-40378340D01*
X131338360Y-40218020D01*
X131212397Y-40029503D01*
X131125632Y-39820034D01*
X131081400Y-39597664D01*
X131081400Y-39370936D01*
X131125632Y-39148566D01*
X131212397Y-38939097D01*
X131338360Y-38750580D01*
X131498680Y-38590260D01*
X131687197Y-38464297D01*
X131896666Y-38377532D01*
X132007851Y-38355416D01*
X132119035Y-38333300D01*
X132345765Y-38333300D01*
X132456949Y-38355416D01*
X132456949Y-38355416D01*
G37*
G36*
X85289149Y-36107516D02*
G01*
X85400334Y-36129632D01*
X85609803Y-36216397D01*
X85798320Y-36342360D01*
X85958640Y-36502680D01*
X86084603Y-36691197D01*
X86171368Y-36900666D01*
X86215600Y-37123036D01*
X86215600Y-37349764D01*
X86171368Y-37572134D01*
X86084603Y-37781603D01*
X85958640Y-37970120D01*
X85798320Y-38130440D01*
X85609803Y-38256403D01*
X85400334Y-38343168D01*
X85289149Y-38365284D01*
X85177965Y-38387400D01*
X84951235Y-38387400D01*
X84840051Y-38365284D01*
X84728866Y-38343168D01*
X84519397Y-38256403D01*
X84330880Y-38130440D01*
X84170560Y-37970120D01*
X84044597Y-37781603D01*
X83957832Y-37572134D01*
X83913600Y-37349764D01*
X83913600Y-37123036D01*
X83957832Y-36900666D01*
X84044597Y-36691197D01*
X84170560Y-36502680D01*
X84330880Y-36342360D01*
X84519397Y-36216397D01*
X84728866Y-36129632D01*
X84840051Y-36107516D01*
X84951235Y-36085400D01*
X85177965Y-36085400D01*
X85289149Y-36107516D01*
X85289149Y-36107516D01*
G37*
G36*
X174671749Y-32081616D02*
G01*
X174782934Y-32103732D01*
X174992403Y-32190497D01*
X175180920Y-32316460D01*
X175341240Y-32476780D01*
X175467203Y-32665297D01*
X175553968Y-32874766D01*
X175598200Y-33097136D01*
X175598200Y-33323864D01*
X175553968Y-33546234D01*
X175467203Y-33755703D01*
X175341240Y-33944220D01*
X175180920Y-34104540D01*
X174992403Y-34230503D01*
X174782934Y-34317268D01*
X174671749Y-34339384D01*
X174560565Y-34361500D01*
X174333835Y-34361500D01*
X174222651Y-34339384D01*
X174111466Y-34317268D01*
X173901997Y-34230503D01*
X173713480Y-34104540D01*
X173553160Y-33944220D01*
X173427197Y-33755703D01*
X173340432Y-33546234D01*
X173296200Y-33323864D01*
X173296200Y-33097136D01*
X173340432Y-32874766D01*
X173427197Y-32665297D01*
X173553160Y-32476780D01*
X173713480Y-32316460D01*
X173901997Y-32190497D01*
X174111466Y-32103732D01*
X174222651Y-32081616D01*
X174333835Y-32059500D01*
X174560565Y-32059500D01*
X174671749Y-32081616D01*
X174671749Y-32081616D01*
G37*
M02*
